<?xml version="1.0" encoding="utf-8" standalone="no"?>
<!DOCTYPE svg PUBLIC "-//W3C//DTD SVG 1.1//EN"
  "http://www.w3.org/Graphics/SVG/1.1/DTD/svg11.dtd">
<svg xmlns:xlink="http://www.w3.org/1999/xlink" width="252pt" height="187.2pt" viewBox="0 0 252 187.2" xmlns="http://www.w3.org/2000/svg" version="1.1">
 <metadata>
  <rdf:RDF xmlns:dc="http://purl.org/dc/elements/1.1/" xmlns:cc="http://creativecommons.org/ns#" xmlns:rdf="http://www.w3.org/1999/02/22-rdf-syntax-ns#">
   <cc:Work>
    <dc:type rdf:resource="http://purl.org/dc/dcmitype/StillImage"/>
    <dc:date>2025-08-18T21:22:44.554396</dc:date>
    <dc:format>image/svg+xml</dc:format>
    <dc:creator>
     <cc:Agent>
      <dc:title>Matplotlib v3.10.5, https://matplotlib.org/</dc:title>
     </cc:Agent>
    </dc:creator>
   </cc:Work>
  </rdf:RDF>
 </metadata>
 <defs>
  <style type="text/css">*{stroke-linejoin: round; stroke-linecap: butt}</style>
 </defs>
 <g id="figure_1">
  <g id="patch_1">
   <path d="M 0 187.2
L 252 187.2
L 252 0
L 0 0
z
" style="fill: #ffffff"/>
  </g>
  <g id="axes_1">
   <g id="patch_2">
    <path d="M 36.08149 157.34351
L 248.99976 157.34351
L 248.99976 3.00024
L 36.08149 3.00024
z
" style="fill: #ffffff"/>
   </g>
   <g id="FillBetweenPolyCollection_1">
    <path d="M 45.759593 143.357052
L 45.759593 150.327907
L 46.732267 150.324491
L 47.704941 150.320446
L 48.677614 150.315666
L 49.650288 150.310029
L 50.622962 150.303392
L 51.595635 150.295595
L 52.568309 150.286451
L 53.540983 150.275749
L 54.513656 150.263248
L 55.48633 150.248674
L 56.459004 150.231715
L 57.431677 150.212019
L 58.404351 150.189191
L 59.377025 150.162782
L 60.349698 150.13229
L 61.322372 150.097155
L 62.295046 150.056747
L 63.26772 150.010367
L 64.240393 149.957236
L 65.213067 149.896491
L 66.185741 149.827179
L 67.158414 149.748248
L 68.131088 149.658539
L 69.103762 149.556786
L 70.076435 149.441598
L 71.049109 149.311464
L 72.021783 149.164737
L 72.994456 148.999633
L 73.96713 148.814223
L 74.939804 148.606431
L 75.912477 148.374023
L 76.885151 148.11461
L 77.857825 147.825644
L 78.830499 147.504414
L 79.803172 147.148047
L 80.775846 146.753512
L 81.74852 146.317619
L 82.721193 145.837031
L 83.693867 145.308264
L 84.666541 144.7277
L 85.639214 144.0916
L 86.611888 143.396118
L 87.584562 142.637315
L 88.557235 141.811187
L 89.529909 140.913677
L 90.502583 139.940713
L 91.475256 138.888226
L 92.44793 137.75219
L 93.420604 136.528651
L 94.393278 135.21377
L 95.365951 133.803858
L 96.338625 132.29542
L 97.311299 130.685202
L 98.283972 128.970234
L 99.256646 127.147883
L 100.22932 125.215895
L 101.201993 123.17245
L 102.174667 121.016211
L 103.147341 118.746371
L 104.120014 116.362704
L 105.092688 113.86561
L 106.065362 111.256159
L 107.038035 108.536134
L 108.010709 105.708064
L 108.983383 102.775265
L 109.956056 99.741859
L 110.92873 96.612803
L 111.901404 93.393901
L 112.874078 90.091816
L 113.846751 86.714068
L 114.819425 83.269032
L 115.792099 79.765919
L 116.764772 76.214754
L 117.737446 72.626346
L 118.71012 69.012245
L 119.682793 65.38469
L 120.655467 61.756554
L 121.628141 58.141274
L 122.600814 54.552779
L 123.573488 51.005399
L 124.546162 47.513786
L 125.518835 44.092805
L 126.491509 40.757442
L 127.464183 37.522693
L 128.436857 34.403452
L 129.40953 31.414401
L 130.382204 28.569896
L 131.354878 25.883852
L 132.327551 23.369629
L 133.300225 21.039926
L 134.272899 18.906668
L 135.245572 16.980912
L 136.218246 15.272744
L 137.19092 13.791197
L 138.163593 12.544168
L 139.136267 11.538351
L 140.108941 10.779173
L 141.081614 10.270749
L 142.054288 10.015843
L 143.026962 10.015843
L 143.999636 10.270749
L 144.972309 10.779173
L 145.944983 11.538351
L 146.917657 12.544168
L 147.89033 13.791197
L 148.863004 15.272744
L 149.835678 16.980912
L 150.808351 18.906668
L 151.781025 21.039926
L 152.753699 23.369629
L 153.726372 25.883852
L 154.699046 28.569896
L 155.67172 31.414401
L 156.644393 34.403452
L 157.617067 37.522693
L 158.589741 40.757442
L 159.562415 44.092805
L 160.535088 47.513786
L 161.507762 51.005399
L 162.480436 54.552779
L 163.453109 58.141274
L 164.425783 61.756554
L 165.398457 65.38469
L 166.37113 69.012245
L 167.343804 72.626346
L 168.316478 76.214754
L 169.289151 79.765919
L 170.261825 83.269032
L 171.234499 86.714068
L 172.207172 90.091816
L 173.179846 93.393901
L 174.15252 96.612803
L 175.125194 99.741859
L 176.097867 102.775265
L 177.070541 105.708064
L 178.043215 108.536134
L 179.015888 111.256159
L 179.988562 113.86561
L 180.961236 116.362704
L 181.933909 118.746371
L 182.906583 121.016211
L 183.879257 123.17245
L 184.85193 125.215895
L 185.824604 127.147883
L 186.797278 128.970234
L 187.769951 130.685202
L 188.742625 132.29542
L 189.715299 133.803858
L 190.687972 135.21377
L 191.660646 136.528651
L 192.63332 137.75219
L 193.605994 138.888226
L 194.578667 139.940713
L 195.551341 140.913677
L 196.524015 141.811187
L 197.496688 142.637315
L 198.469362 143.396118
L 199.442036 144.0916
L 200.414709 144.7277
L 201.387383 145.308264
L 202.360057 145.837031
L 203.33273 146.317619
L 204.305404 146.753512
L 205.278078 147.148047
L 206.250751 147.504414
L 207.223425 147.825644
L 208.196099 148.11461
L 209.168773 148.374023
L 210.141446 148.606431
L 211.11412 148.814223
L 212.086794 148.999633
L 213.059467 149.164737
L 214.032141 149.311464
L 215.004815 149.441598
L 215.977488 149.556786
L 216.950162 149.658539
L 217.922836 149.748248
L 218.895509 149.827179
L 219.868183 149.896491
L 220.840857 149.957236
L 221.81353 150.010367
L 222.786204 150.056747
L 223.758878 150.097155
L 224.731552 150.13229
L 225.704225 150.162782
L 226.676899 150.189191
L 227.649573 150.212019
L 228.622246 150.231715
L 229.59492 150.248674
L 230.567594 150.263248
L 231.540267 150.275749
L 232.512941 150.286451
L 233.485615 150.295595
L 234.458288 150.303392
L 235.430962 150.310029
L 236.403636 150.315666
L 237.376309 150.320446
L 238.348983 150.324491
L 239.321657 150.327907
L 239.321657 143.357052
L 239.321657 143.357052
L 238.348983 143.143145
L 237.376309 142.92269
L 236.403636 142.695487
L 235.430962 142.461329
L 234.458288 142.220004
L 233.485615 141.971291
L 232.512941 141.714966
L 231.540267 141.450795
L 230.567594 141.178537
L 229.59492 140.897945
L 228.622246 140.608765
L 227.649573 140.310733
L 226.676899 140.003578
L 225.704225 139.687021
L 224.731552 139.360775
L 223.758878 139.024542
L 222.786204 138.678017
L 221.81353 138.320885
L 220.840857 137.952821
L 219.868183 137.573491
L 218.895509 137.182549
L 217.922836 136.779641
L 216.950162 136.3644
L 215.977488 135.936448
L 215.004815 135.495397
L 214.032141 135.040845
L 213.059467 134.57238
L 212.086794 134.089575
L 211.11412 133.591991
L 210.141446 133.079176
L 209.168773 132.550664
L 208.196099 132.005975
L 207.223425 131.444612
L 206.250751 130.866066
L 205.278078 130.269811
L 204.305404 129.655305
L 203.33273 129.021989
L 202.360057 128.369286
L 201.387383 127.696605
L 200.414709 127.003333
L 199.442036 126.288841
L 198.469362 125.552477
L 197.496688 124.793574
L 196.524015 124.01144
L 195.551341 123.205366
L 194.578667 122.374618
L 193.605994 121.51844
L 192.63332 120.636056
L 191.660646 119.726661
L 190.687972 118.78943
L 189.715299 117.82351
L 188.742625 116.828024
L 187.769951 115.802066
L 186.797278 114.744704
L 185.824604 113.654976
L 184.85193 112.531891
L 183.879257 111.374429
L 182.906583 110.181537
L 181.933909 108.952131
L 180.961236 107.685093
L 179.988562 106.37927
L 179.015888 105.033477
L 178.043215 103.64649
L 177.070541 102.217046
L 176.097867 100.743848
L 175.125194 99.225555
L 174.15252 97.660787
L 173.179846 96.048122
L 172.207172 94.386094
L 171.234499 92.673191
L 170.261825 90.907856
L 169.289151 89.088485
L 168.316478 87.213422
L 167.343804 85.280965
L 166.37113 83.289355
L 165.398457 81.236782
L 164.425783 79.12138
L 163.453109 76.941226
L 162.480436 74.694337
L 161.507762 72.378671
L 160.535088 69.992124
L 159.562415 67.532524
L 158.589741 64.997636
L 157.617067 62.385156
L 156.644393 59.692707
L 155.67172 56.917844
L 154.699046 54.058042
L 153.726372 51.110701
L 152.753699 48.073143
L 151.781025 44.942606
L 150.808351 41.716243
L 149.835678 38.391122
L 148.863004 34.964219
L 147.89033 31.432419
L 146.917657 27.792511
L 145.944983 24.041185
L 144.972309 20.175033
L 143.999636 16.190537
L 143.026962 12.084077
L 142.054288 12.084077
L 141.081614 16.190537
L 140.108941 20.175033
L 139.136267 24.041185
L 138.163593 27.792511
L 137.19092 31.432419
L 136.218246 34.964219
L 135.245572 38.391122
L 134.272899 41.716243
L 133.300225 44.942606
L 132.327551 48.073143
L 131.354878 51.110701
L 130.382204 54.058042
L 129.40953 56.917844
L 128.436857 59.692707
L 127.464183 62.385156
L 126.491509 64.997636
L 125.518835 67.532524
L 124.546162 69.992124
L 123.573488 72.378671
L 122.600814 74.694337
L 121.628141 76.941226
L 120.655467 79.12138
L 119.682793 81.236782
L 118.71012 83.289355
L 117.737446 85.280965
L 116.764772 87.213422
L 115.792099 89.088485
L 114.819425 90.907856
L 113.846751 92.673191
L 112.874078 94.386094
L 111.901404 96.048122
L 110.92873 97.660787
L 109.956056 99.225555
L 108.983383 100.743848
L 108.010709 102.217046
L 107.038035 103.64649
L 106.065362 105.033477
L 105.092688 106.37927
L 104.120014 107.685093
L 103.147341 108.952131
L 102.174667 110.181537
L 101.201993 111.374429
L 100.22932 112.531891
L 99.256646 113.654976
L 98.283972 114.744704
L 97.311299 115.802066
L 96.338625 116.828024
L 95.365951 117.82351
L 94.393278 118.78943
L 93.420604 119.726661
L 92.44793 120.636056
L 91.475256 121.51844
L 90.502583 122.374618
L 89.529909 123.205366
L 88.557235 124.01144
L 87.584562 124.793574
L 86.611888 125.552477
L 85.639214 126.288841
L 84.666541 127.003333
L 83.693867 127.696605
L 82.721193 128.369286
L 81.74852 129.021989
L 80.775846 129.655305
L 79.803172 130.269811
L 78.830499 130.866066
L 77.857825 131.444612
L 76.885151 132.005975
L 75.912477 132.550664
L 74.939804 133.079176
L 73.96713 133.591991
L 72.994456 134.089575
L 72.021783 134.57238
L 71.049109 135.040845
L 70.076435 135.495397
L 69.103762 135.936448
L 68.131088 136.3644
L 67.158414 136.779641
L 66.185741 137.182549
L 65.213067 137.573491
L 64.240393 137.952821
L 63.26772 138.320885
L 62.295046 138.678017
L 61.322372 139.024542
L 60.349698 139.360775
L 59.377025 139.687021
L 58.404351 140.003578
L 57.431677 140.310733
L 56.459004 140.608765
L 55.48633 140.897945
L 54.513656 141.178537
L 53.540983 141.450795
L 52.568309 141.714966
L 51.595635 141.971291
L 50.622962 142.220004
L 49.650288 142.461329
L 48.677614 142.695487
L 47.704941 142.92269
L 46.732267 143.143145
L 45.759593 143.357052
z
" clip-path="url(#pcac2353d44)" style="fill: #1f77b4; fill-opacity: 0.2"/>
   </g>
   <g id="matplotlib.axis_1">
    <g id="xtick_1">
     <g id="line2d_1">
      <defs>
       <path id="md2effc452f" d="M 0 0
L 0 -5
" style="stroke: #000000"/>
      </defs>
      <g>
       <use xlink:href="#md2effc452f" x="45.759593" y="157.34351" style="fill: #ffffff; stroke: #000000"/>
      </g>
     </g>
     <g id="line2d_2">
      <defs>
       <path id="m1e83144ebf" d="M 0 0
L 0 5
" style="stroke: #000000"/>
      </defs>
      <g>
       <use xlink:href="#m1e83144ebf" x="45.759593" y="3.00024" style="fill: #ffffff; stroke: #000000"/>
      </g>
     </g>
     <g id="text_1">
      <!-- −3 -->
      <g transform="translate(38.388499 168.441948) scale(0.1 -0.1)">
       <defs>
        <path id="DejaVuSans-2212" d="M 678 2272
L 4684 2272
L 4684 1741
L 678 1741
L 678 2272
z
" transform="scale(0.015625)"/>
        <path id="DejaVuSans-33" d="M 2597 2516
Q 3050 2419 3304 2112
Q 3559 1806 3559 1356
Q 3559 666 3084 287
Q 2609 -91 1734 -91
Q 1441 -91 1130 -33
Q 819 25 488 141
L 488 750
Q 750 597 1062 519
Q 1375 441 1716 441
Q 2309 441 2620 675
Q 2931 909 2931 1356
Q 2931 1769 2642 2001
Q 2353 2234 1838 2234
L 1294 2234
L 1294 2753
L 1863 2753
Q 2328 2753 2575 2939
Q 2822 3125 2822 3475
Q 2822 3834 2567 4026
Q 2313 4219 1838 4219
Q 1578 4219 1281 4162
Q 984 4106 628 3988
L 628 4550
Q 988 4650 1302 4700
Q 1616 4750 1894 4750
Q 2613 4750 3031 4423
Q 3450 4097 3450 3541
Q 3450 3153 3228 2886
Q 3006 2619 2597 2516
z
" transform="scale(0.015625)"/>
       </defs>
       <use xlink:href="#DejaVuSans-2212"/>
       <use xlink:href="#DejaVuSans-33" transform="translate(83.789062 0)"/>
      </g>
     </g>
    </g>
    <g id="xtick_2">
     <g id="line2d_3">
      <g>
       <use xlink:href="#md2effc452f" x="78.019937" y="157.34351" style="fill: #ffffff; stroke: #000000"/>
      </g>
     </g>
     <g id="line2d_4">
      <g>
       <use xlink:href="#m1e83144ebf" x="78.019937" y="3.00024" style="fill: #ffffff; stroke: #000000"/>
      </g>
     </g>
     <g id="text_2">
      <!-- −2 -->
      <g transform="translate(70.648843 168.441948) scale(0.1 -0.1)">
       <defs>
        <path id="DejaVuSans-32" d="M 1228 531
L 3431 531
L 3431 0
L 469 0
L 469 531
Q 828 903 1448 1529
Q 2069 2156 2228 2338
Q 2531 2678 2651 2914
Q 2772 3150 2772 3378
Q 2772 3750 2511 3984
Q 2250 4219 1831 4219
Q 1534 4219 1204 4116
Q 875 4013 500 3803
L 500 4441
Q 881 4594 1212 4672
Q 1544 4750 1819 4750
Q 2544 4750 2975 4387
Q 3406 4025 3406 3419
Q 3406 3131 3298 2873
Q 3191 2616 2906 2266
Q 2828 2175 2409 1742
Q 1991 1309 1228 531
z
" transform="scale(0.015625)"/>
       </defs>
       <use xlink:href="#DejaVuSans-2212"/>
       <use xlink:href="#DejaVuSans-32" transform="translate(83.789062 0)"/>
      </g>
     </g>
    </g>
    <g id="xtick_3">
     <g id="line2d_5">
      <g>
       <use xlink:href="#md2effc452f" x="110.280281" y="157.34351" style="fill: #ffffff; stroke: #000000"/>
      </g>
     </g>
     <g id="line2d_6">
      <g>
       <use xlink:href="#m1e83144ebf" x="110.280281" y="3.00024" style="fill: #ffffff; stroke: #000000"/>
      </g>
     </g>
     <g id="text_3">
      <!-- −1 -->
      <g transform="translate(102.909187 168.441948) scale(0.1 -0.1)">
       <defs>
        <path id="DejaVuSans-31" d="M 794 531
L 1825 531
L 1825 4091
L 703 3866
L 703 4441
L 1819 4666
L 2450 4666
L 2450 531
L 3481 531
L 3481 0
L 794 0
L 794 531
z
" transform="scale(0.015625)"/>
       </defs>
       <use xlink:href="#DejaVuSans-2212"/>
       <use xlink:href="#DejaVuSans-31" transform="translate(83.789062 0)"/>
      </g>
     </g>
    </g>
    <g id="xtick_4">
     <g id="line2d_7">
      <g>
       <use xlink:href="#md2effc452f" x="142.540625" y="157.34351" style="fill: #ffffff; stroke: #000000"/>
      </g>
     </g>
     <g id="line2d_8">
      <g>
       <use xlink:href="#m1e83144ebf" x="142.540625" y="3.00024" style="fill: #ffffff; stroke: #000000"/>
      </g>
     </g>
     <g id="text_4">
      <!-- 0 -->
      <g transform="translate(139.359375 168.441948) scale(0.1 -0.1)">
       <defs>
        <path id="DejaVuSans-30" d="M 2034 4250
Q 1547 4250 1301 3770
Q 1056 3291 1056 2328
Q 1056 1369 1301 889
Q 1547 409 2034 409
Q 2525 409 2770 889
Q 3016 1369 3016 2328
Q 3016 3291 2770 3770
Q 2525 4250 2034 4250
z
M 2034 4750
Q 2819 4750 3233 4129
Q 3647 3509 3647 2328
Q 3647 1150 3233 529
Q 2819 -91 2034 -91
Q 1250 -91 836 529
Q 422 1150 422 2328
Q 422 3509 836 4129
Q 1250 4750 2034 4750
z
" transform="scale(0.015625)"/>
       </defs>
       <use xlink:href="#DejaVuSans-30"/>
      </g>
     </g>
    </g>
    <g id="xtick_5">
     <g id="line2d_9">
      <g>
       <use xlink:href="#md2effc452f" x="174.800969" y="157.34351" style="fill: #ffffff; stroke: #000000"/>
      </g>
     </g>
     <g id="line2d_10">
      <g>
       <use xlink:href="#m1e83144ebf" x="174.800969" y="3.00024" style="fill: #ffffff; stroke: #000000"/>
      </g>
     </g>
     <g id="text_5">
      <!-- 1 -->
      <g transform="translate(171.619719 168.441948) scale(0.1 -0.1)">
       <use xlink:href="#DejaVuSans-31"/>
      </g>
     </g>
    </g>
    <g id="xtick_6">
     <g id="line2d_11">
      <g>
       <use xlink:href="#md2effc452f" x="207.061313" y="157.34351" style="fill: #ffffff; stroke: #000000"/>
      </g>
     </g>
     <g id="line2d_12">
      <g>
       <use xlink:href="#m1e83144ebf" x="207.061313" y="3.00024" style="fill: #ffffff; stroke: #000000"/>
      </g>
     </g>
     <g id="text_6">
      <!-- 2 -->
      <g transform="translate(203.880063 168.441948) scale(0.1 -0.1)">
       <use xlink:href="#DejaVuSans-32"/>
      </g>
     </g>
    </g>
    <g id="xtick_7">
     <g id="line2d_13">
      <g>
       <use xlink:href="#md2effc452f" x="239.321657" y="157.34351" style="fill: #ffffff; stroke: #000000"/>
      </g>
     </g>
     <g id="line2d_14">
      <g>
       <use xlink:href="#m1e83144ebf" x="239.321657" y="3.00024" style="fill: #ffffff; stroke: #000000"/>
      </g>
     </g>
     <g id="text_7">
      <!-- 3 -->
      <g transform="translate(236.140407 168.441948) scale(0.1 -0.1)">
       <use xlink:href="#DejaVuSans-33"/>
      </g>
     </g>
    </g>
    <g id="text_8">
     <!-- X-axis -->
     <g transform="translate(127.544531 182.120073) scale(0.1 -0.1)">
      <defs>
       <path id="DejaVuSans-58" d="M 403 4666
L 1081 4666
L 2241 2931
L 3406 4666
L 4084 4666
L 2584 2425
L 4184 0
L 3506 0
L 2194 1984
L 872 0
L 191 0
L 1856 2491
L 403 4666
z
" transform="scale(0.015625)"/>
       <path id="DejaVuSans-2d" d="M 313 2009
L 1997 2009
L 1997 1497
L 313 1497
L 313 2009
z
" transform="scale(0.015625)"/>
       <path id="DejaVuSans-61" d="M 2194 1759
Q 1497 1759 1228 1600
Q 959 1441 959 1056
Q 959 750 1161 570
Q 1363 391 1709 391
Q 2188 391 2477 730
Q 2766 1069 2766 1631
L 2766 1759
L 2194 1759
z
M 3341 1997
L 3341 0
L 2766 0
L 2766 531
Q 2569 213 2275 61
Q 1981 -91 1556 -91
Q 1019 -91 701 211
Q 384 513 384 1019
Q 384 1609 779 1909
Q 1175 2209 1959 2209
L 2766 2209
L 2766 2266
Q 2766 2663 2505 2880
Q 2244 3097 1772 3097
Q 1472 3097 1187 3025
Q 903 2953 641 2809
L 641 3341
Q 956 3463 1253 3523
Q 1550 3584 1831 3584
Q 2591 3584 2966 3190
Q 3341 2797 3341 1997
z
" transform="scale(0.015625)"/>
       <path id="DejaVuSans-78" d="M 3513 3500
L 2247 1797
L 3578 0
L 2900 0
L 1881 1375
L 863 0
L 184 0
L 1544 1831
L 300 3500
L 978 3500
L 1906 2253
L 2834 3500
L 3513 3500
z
" transform="scale(0.015625)"/>
       <path id="DejaVuSans-69" d="M 603 3500
L 1178 3500
L 1178 0
L 603 0
L 603 3500
z
M 603 4863
L 1178 4863
L 1178 4134
L 603 4134
L 603 4863
z
" transform="scale(0.015625)"/>
       <path id="DejaVuSans-73" d="M 2834 3397
L 2834 2853
Q 2591 2978 2328 3040
Q 2066 3103 1784 3103
Q 1356 3103 1142 2972
Q 928 2841 928 2578
Q 928 2378 1081 2264
Q 1234 2150 1697 2047
L 1894 2003
Q 2506 1872 2764 1633
Q 3022 1394 3022 966
Q 3022 478 2636 193
Q 2250 -91 1575 -91
Q 1294 -91 989 -36
Q 684 19 347 128
L 347 722
Q 666 556 975 473
Q 1284 391 1588 391
Q 1994 391 2212 530
Q 2431 669 2431 922
Q 2431 1156 2273 1281
Q 2116 1406 1581 1522
L 1381 1569
Q 847 1681 609 1914
Q 372 2147 372 2553
Q 372 3047 722 3315
Q 1072 3584 1716 3584
Q 2034 3584 2315 3537
Q 2597 3491 2834 3397
z
" transform="scale(0.015625)"/>
      </defs>
      <use xlink:href="#DejaVuSans-58"/>
      <use xlink:href="#DejaVuSans-2d" transform="translate(63.505859 0)"/>
      <use xlink:href="#DejaVuSans-61" transform="translate(99.589844 0)"/>
      <use xlink:href="#DejaVuSans-78" transform="translate(160.869141 0)"/>
      <use xlink:href="#DejaVuSans-69" transform="translate(220.048828 0)"/>
      <use xlink:href="#DejaVuSans-73" transform="translate(247.832031 0)"/>
     </g>
    </g>
   </g>
   <g id="matplotlib.axis_2">
    <g id="ytick_1">
     <g id="line2d_15">
      <defs>
       <path id="m2cda91ee80" d="M 0 0
L 5 0
" style="stroke: #000000"/>
      </defs>
      <g>
       <use xlink:href="#m2cda91ee80" x="36.08149" y="150.345229" style="fill: #ffffff; stroke: #000000"/>
      </g>
     </g>
     <g id="line2d_16">
      <defs>
       <path id="ma05ca6f6bf" d="M 0 0
L -5 0
" style="stroke: #000000"/>
      </defs>
      <g>
       <use xlink:href="#ma05ca6f6bf" x="248.99976" y="150.345229" style="fill: #ffffff; stroke: #000000"/>
      </g>
     </g>
     <g id="text_9">
      <!-- 0.0 -->
      <g transform="translate(16.678365 154.144448) scale(0.1 -0.1)">
       <defs>
        <path id="DejaVuSans-2e" d="M 684 794
L 1344 794
L 1344 0
L 684 0
L 684 794
z
" transform="scale(0.015625)"/>
       </defs>
       <use xlink:href="#DejaVuSans-30"/>
       <use xlink:href="#DejaVuSans-2e" transform="translate(63.623047 0)"/>
       <use xlink:href="#DejaVuSans-30" transform="translate(95.410156 0)"/>
      </g>
     </g>
    </g>
    <g id="ytick_2">
     <g id="line2d_17">
      <g>
       <use xlink:href="#m2cda91ee80" x="36.08149" y="122.272972" style="fill: #ffffff; stroke: #000000"/>
      </g>
     </g>
     <g id="line2d_18">
      <g>
       <use xlink:href="#ma05ca6f6bf" x="248.99976" y="122.272972" style="fill: #ffffff; stroke: #000000"/>
      </g>
     </g>
     <g id="text_10">
      <!-- 0.2 -->
      <g transform="translate(16.678365 126.072191) scale(0.1 -0.1)">
       <use xlink:href="#DejaVuSans-30"/>
       <use xlink:href="#DejaVuSans-2e" transform="translate(63.623047 0)"/>
       <use xlink:href="#DejaVuSans-32" transform="translate(95.410156 0)"/>
      </g>
     </g>
    </g>
    <g id="ytick_3">
     <g id="line2d_19">
      <g>
       <use xlink:href="#m2cda91ee80" x="36.08149" y="94.200716" style="fill: #ffffff; stroke: #000000"/>
      </g>
     </g>
     <g id="line2d_20">
      <g>
       <use xlink:href="#ma05ca6f6bf" x="248.99976" y="94.200716" style="fill: #ffffff; stroke: #000000"/>
      </g>
     </g>
     <g id="text_11">
      <!-- 0.4 -->
      <g transform="translate(16.678365 97.999935) scale(0.1 -0.1)">
       <defs>
        <path id="DejaVuSans-34" d="M 2419 4116
L 825 1625
L 2419 1625
L 2419 4116
z
M 2253 4666
L 3047 4666
L 3047 1625
L 3713 1625
L 3713 1100
L 3047 1100
L 3047 0
L 2419 0
L 2419 1100
L 313 1100
L 313 1709
L 2253 4666
z
" transform="scale(0.015625)"/>
       </defs>
       <use xlink:href="#DejaVuSans-30"/>
       <use xlink:href="#DejaVuSans-2e" transform="translate(63.623047 0)"/>
       <use xlink:href="#DejaVuSans-34" transform="translate(95.410156 0)"/>
      </g>
     </g>
    </g>
    <g id="ytick_4">
     <g id="line2d_21">
      <g>
       <use xlink:href="#m2cda91ee80" x="36.08149" y="66.12846" style="fill: #ffffff; stroke: #000000"/>
      </g>
     </g>
     <g id="line2d_22">
      <g>
       <use xlink:href="#ma05ca6f6bf" x="248.99976" y="66.12846" style="fill: #ffffff; stroke: #000000"/>
      </g>
     </g>
     <g id="text_12">
      <!-- 0.6 -->
      <g transform="translate(16.678365 69.927679) scale(0.1 -0.1)">
       <defs>
        <path id="DejaVuSans-36" d="M 2113 2584
Q 1688 2584 1439 2293
Q 1191 2003 1191 1497
Q 1191 994 1439 701
Q 1688 409 2113 409
Q 2538 409 2786 701
Q 3034 994 3034 1497
Q 3034 2003 2786 2293
Q 2538 2584 2113 2584
z
M 3366 4563
L 3366 3988
Q 3128 4100 2886 4159
Q 2644 4219 2406 4219
Q 1781 4219 1451 3797
Q 1122 3375 1075 2522
Q 1259 2794 1537 2939
Q 1816 3084 2150 3084
Q 2853 3084 3261 2657
Q 3669 2231 3669 1497
Q 3669 778 3244 343
Q 2819 -91 2113 -91
Q 1303 -91 875 529
Q 447 1150 447 2328
Q 447 3434 972 4092
Q 1497 4750 2381 4750
Q 2619 4750 2861 4703
Q 3103 4656 3366 4563
z
" transform="scale(0.015625)"/>
       </defs>
       <use xlink:href="#DejaVuSans-30"/>
       <use xlink:href="#DejaVuSans-2e" transform="translate(63.623047 0)"/>
       <use xlink:href="#DejaVuSans-36" transform="translate(95.410156 0)"/>
      </g>
     </g>
    </g>
    <g id="ytick_5">
     <g id="line2d_23">
      <g>
       <use xlink:href="#m2cda91ee80" x="36.08149" y="38.056204" style="fill: #ffffff; stroke: #000000"/>
      </g>
     </g>
     <g id="line2d_24">
      <g>
       <use xlink:href="#ma05ca6f6bf" x="248.99976" y="38.056204" style="fill: #ffffff; stroke: #000000"/>
      </g>
     </g>
     <g id="text_13">
      <!-- 0.8 -->
      <g transform="translate(16.678365 41.855422) scale(0.1 -0.1)">
       <defs>
        <path id="DejaVuSans-38" d="M 2034 2216
Q 1584 2216 1326 1975
Q 1069 1734 1069 1313
Q 1069 891 1326 650
Q 1584 409 2034 409
Q 2484 409 2743 651
Q 3003 894 3003 1313
Q 3003 1734 2745 1975
Q 2488 2216 2034 2216
z
M 1403 2484
Q 997 2584 770 2862
Q 544 3141 544 3541
Q 544 4100 942 4425
Q 1341 4750 2034 4750
Q 2731 4750 3128 4425
Q 3525 4100 3525 3541
Q 3525 3141 3298 2862
Q 3072 2584 2669 2484
Q 3125 2378 3379 2068
Q 3634 1759 3634 1313
Q 3634 634 3220 271
Q 2806 -91 2034 -91
Q 1263 -91 848 271
Q 434 634 434 1313
Q 434 1759 690 2068
Q 947 2378 1403 2484
z
M 1172 3481
Q 1172 3119 1398 2916
Q 1625 2713 2034 2713
Q 2441 2713 2670 2916
Q 2900 3119 2900 3481
Q 2900 3844 2670 4047
Q 2441 4250 2034 4250
Q 1625 4250 1398 4047
Q 1172 3844 1172 3481
z
" transform="scale(0.015625)"/>
       </defs>
       <use xlink:href="#DejaVuSans-30"/>
       <use xlink:href="#DejaVuSans-2e" transform="translate(63.623047 0)"/>
       <use xlink:href="#DejaVuSans-38" transform="translate(95.410156 0)"/>
      </g>
     </g>
    </g>
    <g id="ytick_6">
     <g id="line2d_25">
      <g>
       <use xlink:href="#m2cda91ee80" x="36.08149" y="9.983947" style="fill: #ffffff; stroke: #000000"/>
      </g>
     </g>
     <g id="line2d_26">
      <g>
       <use xlink:href="#ma05ca6f6bf" x="248.99976" y="9.983947" style="fill: #ffffff; stroke: #000000"/>
      </g>
     </g>
     <g id="text_14">
      <!-- 1.0 -->
      <g transform="translate(16.678365 13.783166) scale(0.1 -0.1)">
       <use xlink:href="#DejaVuSans-31"/>
       <use xlink:href="#DejaVuSans-2e" transform="translate(63.623047 0)"/>
       <use xlink:href="#DejaVuSans-30" transform="translate(95.410156 0)"/>
      </g>
     </g>
    </g>
    <g id="text_15">
     <!-- Function value -->
     <g transform="translate(10.598678 116.683594) rotate(-90) scale(0.1 -0.1)">
      <defs>
       <path id="DejaVuSans-46" d="M 628 4666
L 3309 4666
L 3309 4134
L 1259 4134
L 1259 2759
L 3109 2759
L 3109 2228
L 1259 2228
L 1259 0
L 628 0
L 628 4666
z
" transform="scale(0.015625)"/>
       <path id="DejaVuSans-75" d="M 544 1381
L 544 3500
L 1119 3500
L 1119 1403
Q 1119 906 1312 657
Q 1506 409 1894 409
Q 2359 409 2629 706
Q 2900 1003 2900 1516
L 2900 3500
L 3475 3500
L 3475 0
L 2900 0
L 2900 538
Q 2691 219 2414 64
Q 2138 -91 1772 -91
Q 1169 -91 856 284
Q 544 659 544 1381
z
M 1991 3584
L 1991 3584
z
" transform="scale(0.015625)"/>
       <path id="DejaVuSans-6e" d="M 3513 2113
L 3513 0
L 2938 0
L 2938 2094
Q 2938 2591 2744 2837
Q 2550 3084 2163 3084
Q 1697 3084 1428 2787
Q 1159 2491 1159 1978
L 1159 0
L 581 0
L 581 3500
L 1159 3500
L 1159 2956
Q 1366 3272 1645 3428
Q 1925 3584 2291 3584
Q 2894 3584 3203 3211
Q 3513 2838 3513 2113
z
" transform="scale(0.015625)"/>
       <path id="DejaVuSans-63" d="M 3122 3366
L 3122 2828
Q 2878 2963 2633 3030
Q 2388 3097 2138 3097
Q 1578 3097 1268 2742
Q 959 2388 959 1747
Q 959 1106 1268 751
Q 1578 397 2138 397
Q 2388 397 2633 464
Q 2878 531 3122 666
L 3122 134
Q 2881 22 2623 -34
Q 2366 -91 2075 -91
Q 1284 -91 818 406
Q 353 903 353 1747
Q 353 2603 823 3093
Q 1294 3584 2113 3584
Q 2378 3584 2631 3529
Q 2884 3475 3122 3366
z
" transform="scale(0.015625)"/>
       <path id="DejaVuSans-74" d="M 1172 4494
L 1172 3500
L 2356 3500
L 2356 3053
L 1172 3053
L 1172 1153
Q 1172 725 1289 603
Q 1406 481 1766 481
L 2356 481
L 2356 0
L 1766 0
Q 1100 0 847 248
Q 594 497 594 1153
L 594 3053
L 172 3053
L 172 3500
L 594 3500
L 594 4494
L 1172 4494
z
" transform="scale(0.015625)"/>
       <path id="DejaVuSans-6f" d="M 1959 3097
Q 1497 3097 1228 2736
Q 959 2375 959 1747
Q 959 1119 1226 758
Q 1494 397 1959 397
Q 2419 397 2687 759
Q 2956 1122 2956 1747
Q 2956 2369 2687 2733
Q 2419 3097 1959 3097
z
M 1959 3584
Q 2709 3584 3137 3096
Q 3566 2609 3566 1747
Q 3566 888 3137 398
Q 2709 -91 1959 -91
Q 1206 -91 779 398
Q 353 888 353 1747
Q 353 2609 779 3096
Q 1206 3584 1959 3584
z
" transform="scale(0.015625)"/>
       <path id="DejaVuSans-20" transform="scale(0.015625)"/>
       <path id="DejaVuSans-76" d="M 191 3500
L 800 3500
L 1894 563
L 2988 3500
L 3597 3500
L 2284 0
L 1503 0
L 191 3500
z
" transform="scale(0.015625)"/>
       <path id="DejaVuSans-6c" d="M 603 4863
L 1178 4863
L 1178 0
L 603 0
L 603 4863
z
" transform="scale(0.015625)"/>
       <path id="DejaVuSans-65" d="M 3597 1894
L 3597 1613
L 953 1613
Q 991 1019 1311 708
Q 1631 397 2203 397
Q 2534 397 2845 478
Q 3156 559 3463 722
L 3463 178
Q 3153 47 2828 -22
Q 2503 -91 2169 -91
Q 1331 -91 842 396
Q 353 884 353 1716
Q 353 2575 817 3079
Q 1281 3584 2069 3584
Q 2775 3584 3186 3129
Q 3597 2675 3597 1894
z
M 3022 2063
Q 3016 2534 2758 2815
Q 2500 3097 2075 3097
Q 1594 3097 1305 2825
Q 1016 2553 972 2059
L 3022 2063
z
" transform="scale(0.015625)"/>
      </defs>
      <use xlink:href="#DejaVuSans-46"/>
      <use xlink:href="#DejaVuSans-75" transform="translate(52.019531 0)"/>
      <use xlink:href="#DejaVuSans-6e" transform="translate(115.398438 0)"/>
      <use xlink:href="#DejaVuSans-63" transform="translate(178.777344 0)"/>
      <use xlink:href="#DejaVuSans-74" transform="translate(233.757812 0)"/>
      <use xlink:href="#DejaVuSans-69" transform="translate(272.966797 0)"/>
      <use xlink:href="#DejaVuSans-6f" transform="translate(300.75 0)"/>
      <use xlink:href="#DejaVuSans-6e" transform="translate(361.931641 0)"/>
      <use xlink:href="#DejaVuSans-20" transform="translate(425.310547 0)"/>
      <use xlink:href="#DejaVuSans-76" transform="translate(457.097656 0)"/>
      <use xlink:href="#DejaVuSans-61" transform="translate(516.277344 0)"/>
      <use xlink:href="#DejaVuSans-6c" transform="translate(577.556641 0)"/>
      <use xlink:href="#DejaVuSans-75" transform="translate(605.339844 0)"/>
      <use xlink:href="#DejaVuSans-65" transform="translate(668.71875 0)"/>
     </g>
    </g>
   </g>
   <g id="line2d_27">
    <path d="M 45.759593 150.327907
L 58.404351 150.189191
L 65.213067 149.896491
L 70.076435 149.441598
L 73.96713 148.814223
L 76.885151 148.11461
L 79.803172 147.148047
L 81.74852 146.317619
L 83.693867 145.308264
L 85.639214 144.0916
L 87.584562 142.637315
L 89.529909 140.913677
L 91.475256 138.888226
L 93.420604 136.528651
L 95.365951 133.803858
L 97.311299 130.685202
L 99.256646 127.147883
L 101.201993 123.17245
L 103.147341 118.746371
L 105.092688 113.86561
L 107.038035 108.536134
L 109.956056 99.741859
L 112.874078 90.091816
L 116.764772 76.214754
L 125.518835 44.092805
L 128.436857 34.403452
L 130.382204 28.569896
L 132.327551 23.369629
L 134.272899 18.906668
L 136.218246 15.272744
L 137.19092 13.791197
L 138.163593 12.544168
L 139.136267 11.538351
L 140.108941 10.779173
L 141.081614 10.270749
L 142.054288 10.015843
L 143.026962 10.015843
L 143.999636 10.270749
L 144.972309 10.779173
L 145.944983 11.538351
L 146.917657 12.544168
L 147.89033 13.791197
L 148.863004 15.272744
L 150.808351 18.906668
L 152.753699 23.369629
L 154.699046 28.569896
L 156.644393 34.403452
L 159.562415 44.092805
L 163.453109 58.141274
L 171.234499 86.714068
L 174.15252 96.612803
L 177.070541 105.708064
L 179.988562 113.86561
L 181.933909 118.746371
L 183.879257 123.17245
L 185.824604 127.147883
L 187.769951 130.685202
L 189.715299 133.803858
L 191.660646 136.528651
L 193.605994 138.888226
L 195.551341 140.913677
L 197.496688 142.637315
L 199.442036 144.0916
L 201.387383 145.308264
L 203.33273 146.317619
L 206.250751 147.504414
L 209.168773 148.374023
L 212.086794 148.999633
L 215.977488 149.556786
L 220.840857 149.957236
L 226.676899 150.189191
L 236.403636 150.315666
L 239.321657 150.327907
L 239.321657 150.327907
" clip-path="url(#pcac2353d44)" style="fill: none; stroke: #1f77b4; stroke-width: 1.5; stroke-linecap: square"/>
   </g>
   <g id="line2d_28">
    <path d="M 45.759593 143.357052
L 51.595635 141.971291
L 56.459004 140.608765
L 61.322372 139.024542
L 66.185741 137.182549
L 70.076435 135.495397
L 73.96713 133.591991
L 77.857825 131.444612
L 81.74852 129.021989
L 85.639214 126.288841
L 89.529909 123.205366
L 92.44793 120.636056
L 95.365951 117.82351
L 98.283972 114.744704
L 101.201993 111.374429
L 104.120014 107.685093
L 107.038035 103.64649
L 109.956056 99.225555
L 112.874078 94.386094
L 115.792099 89.088485
L 118.71012 83.289355
L 121.628141 76.941226
L 124.546162 69.992124
L 127.464183 62.385156
L 130.382204 54.058042
L 133.300225 44.942606
L 136.218246 34.964219
L 139.136267 24.041185
L 142.054288 12.084077
L 143.026962 12.084077
L 145.944983 24.041185
L 148.863004 34.964219
L 151.781025 44.942606
L 154.699046 54.058042
L 157.617067 62.385156
L 160.535088 69.992124
L 163.453109 76.941226
L 166.37113 83.289355
L 169.289151 89.088485
L 172.207172 94.386094
L 175.125194 99.225555
L 178.043215 103.64649
L 180.961236 107.685093
L 183.879257 111.374429
L 186.797278 114.744704
L 189.715299 117.82351
L 192.63332 120.636056
L 195.551341 123.205366
L 199.442036 126.288841
L 203.33273 129.021989
L 207.223425 131.444612
L 211.11412 133.591991
L 215.004815 135.495397
L 218.895509 137.182549
L 223.758878 139.024542
L 228.622246 140.608765
L 233.485615 141.971291
L 239.321657 143.357052
L 239.321657 143.357052
" clip-path="url(#pcac2353d44)" style="fill: none; stroke: #ff7f0e; stroke-width: 1.5; stroke-linecap: square"/>
   </g>
   <g id="patch_3">
    <path d="M 36.08149 157.34351
L 36.08149 3.00024
" style="fill: none; stroke: #000000; stroke-linejoin: miter; stroke-linecap: square"/>
   </g>
   <g id="patch_4">
    <path d="M 248.99976 157.34351
L 248.99976 3.00024
" style="fill: none; stroke: #000000; stroke-linejoin: miter; stroke-linecap: square"/>
   </g>
   <g id="patch_5">
    <path d="M 36.08149 157.34351
L 248.99976 157.34351
" style="fill: none; stroke: #000000; stroke-linejoin: miter; stroke-linecap: square"/>
   </g>
   <g id="patch_6">
    <path d="M 36.08149 3.00024
L 248.99976 3.00024
" style="fill: none; stroke: #000000; stroke-linejoin: miter; stroke-linecap: square"/>
   </g>
   <g id="legend_1">
    <g id="line2d_29">
     <path d="M 131.99976 16.820553
L 141.99976 16.820553
L 151.99976 16.820553
" style="fill: none; stroke: #1f77b4; stroke-width: 1.5; stroke-linecap: square"/>
    </g>
    <g id="text_16">
     <!-- Gaussian $e^{-x^2}$ -->
     <g transform="translate(155.99976 20.320553) scale(0.1 -0.1)">
      <defs>
       <path id="DejaVuSans-47" d="M 3809 666
L 3809 1919
L 2778 1919
L 2778 2438
L 4434 2438
L 4434 434
Q 4069 175 3628 42
Q 3188 -91 2688 -91
Q 1594 -91 976 548
Q 359 1188 359 2328
Q 359 3472 976 4111
Q 1594 4750 2688 4750
Q 3144 4750 3555 4637
Q 3966 4525 4313 4306
L 4313 3634
Q 3963 3931 3569 4081
Q 3175 4231 2741 4231
Q 1884 4231 1454 3753
Q 1025 3275 1025 2328
Q 1025 1384 1454 906
Q 1884 428 2741 428
Q 3075 428 3337 486
Q 3600 544 3809 666
z
" transform="scale(0.015625)"/>
       <path id="DejaVuSans-Oblique-65" d="M 3078 2063
Q 3088 2113 3092 2166
Q 3097 2219 3097 2272
Q 3097 2653 2873 2875
Q 2650 3097 2266 3097
Q 1838 3097 1509 2826
Q 1181 2556 1013 2059
L 3078 2063
z
M 3578 1613
L 903 1613
Q 884 1494 878 1425
Q 872 1356 872 1306
Q 872 872 1139 634
Q 1406 397 1894 397
Q 2269 397 2603 481
Q 2938 566 3225 728
L 3116 159
Q 2806 34 2476 -28
Q 2147 -91 1806 -91
Q 1078 -91 686 257
Q 294 606 294 1247
Q 294 1794 489 2264
Q 684 2734 1063 3103
Q 1306 3334 1642 3459
Q 1978 3584 2356 3584
Q 2950 3584 3301 3228
Q 3653 2872 3653 2272
Q 3653 2128 3634 1964
Q 3616 1800 3578 1613
z
" transform="scale(0.015625)"/>
       <path id="DejaVuSans-Oblique-78" d="M 3841 3500
L 2234 1784
L 3219 0
L 2559 0
L 1819 1388
L 531 0
L -166 0
L 1556 1844
L 641 3500
L 1300 3500
L 1972 2234
L 3144 3500
L 3841 3500
z
" transform="scale(0.015625)"/>
      </defs>
      <use xlink:href="#DejaVuSans-47" transform="translate(0 0.554688)"/>
      <use xlink:href="#DejaVuSans-61" transform="translate(77.490234 0.554688)"/>
      <use xlink:href="#DejaVuSans-75" transform="translate(138.769531 0.554688)"/>
      <use xlink:href="#DejaVuSans-73" transform="translate(202.148438 0.554688)"/>
      <use xlink:href="#DejaVuSans-73" transform="translate(254.248047 0.554688)"/>
      <use xlink:href="#DejaVuSans-69" transform="translate(306.347656 0.554688)"/>
      <use xlink:href="#DejaVuSans-61" transform="translate(334.130859 0.554688)"/>
      <use xlink:href="#DejaVuSans-6e" transform="translate(395.410156 0.554688)"/>
      <use xlink:href="#DejaVuSans-20" transform="translate(458.789062 0.554688)"/>
      <use xlink:href="#DejaVuSans-Oblique-65" transform="translate(490.576172 0.554688)"/>
      <use xlink:href="#DejaVuSans-2212" transform="translate(556.749505 38.835938) scale(0.7)"/>
      <use xlink:href="#DejaVuSans-Oblique-78" transform="translate(615.401849 38.835938) scale(0.7)"/>
      <use xlink:href="#DejaVuSans-32" transform="translate(659.953932 65.632812) scale(0.49)"/>
     </g>
    </g>
    <g id="line2d_30">
     <path d="M 131.99976 33.10024
L 141.99976 33.10024
L 151.99976 33.10024
" style="fill: none; stroke: #ff7f0e; stroke-width: 1.5; stroke-linecap: square"/>
    </g>
    <g id="text_17">
     <!-- Exponential $e^{-|x|}$ -->
     <g transform="translate(155.99976 36.60024) scale(0.1 -0.1)">
      <defs>
       <path id="DejaVuSans-45" d="M 628 4666
L 3578 4666
L 3578 4134
L 1259 4134
L 1259 2753
L 3481 2753
L 3481 2222
L 1259 2222
L 1259 531
L 3634 531
L 3634 0
L 628 0
L 628 4666
z
" transform="scale(0.015625)"/>
       <path id="DejaVuSans-70" d="M 1159 525
L 1159 -1331
L 581 -1331
L 581 3500
L 1159 3500
L 1159 2969
Q 1341 3281 1617 3432
Q 1894 3584 2278 3584
Q 2916 3584 3314 3078
Q 3713 2572 3713 1747
Q 3713 922 3314 415
Q 2916 -91 2278 -91
Q 1894 -91 1617 61
Q 1341 213 1159 525
z
M 3116 1747
Q 3116 2381 2855 2742
Q 2594 3103 2138 3103
Q 1681 3103 1420 2742
Q 1159 2381 1159 1747
Q 1159 1113 1420 752
Q 1681 391 2138 391
Q 2594 391 2855 752
Q 3116 1113 3116 1747
z
" transform="scale(0.015625)"/>
       <path id="DejaVuSans-7c" d="M 1344 4891
L 1344 -1509
L 813 -1509
L 813 4891
L 1344 4891
z
" transform="scale(0.015625)"/>
      </defs>
      <use xlink:href="#DejaVuSans-45" transform="translate(0 0.223438)"/>
      <use xlink:href="#DejaVuSans-78" transform="translate(63.183594 0.223438)"/>
      <use xlink:href="#DejaVuSans-70" transform="translate(122.363281 0.223438)"/>
      <use xlink:href="#DejaVuSans-6f" transform="translate(185.839844 0.223438)"/>
      <use xlink:href="#DejaVuSans-6e" transform="translate(247.021484 0.223438)"/>
      <use xlink:href="#DejaVuSans-65" transform="translate(310.400391 0.223438)"/>
      <use xlink:href="#DejaVuSans-6e" transform="translate(371.923828 0.223438)"/>
      <use xlink:href="#DejaVuSans-74" transform="translate(435.302734 0.223438)"/>
      <use xlink:href="#DejaVuSans-69" transform="translate(474.511719 0.223438)"/>
      <use xlink:href="#DejaVuSans-61" transform="translate(502.294922 0.223438)"/>
      <use xlink:href="#DejaVuSans-6c" transform="translate(563.574219 0.223438)"/>
      <use xlink:href="#DejaVuSans-20" transform="translate(591.357422 0.223438)"/>
      <use xlink:href="#DejaVuSans-Oblique-65" transform="translate(623.144531 0.223438)"/>
      <use xlink:href="#DejaVuSans-2212" transform="translate(689.317865 38.504688) scale(0.7)"/>
      <use xlink:href="#DejaVuSans-7c" transform="translate(747.970208 38.504688) scale(0.7)"/>
      <use xlink:href="#DejaVuSans-Oblique-78" transform="translate(771.554193 38.504688) scale(0.7)"/>
      <use xlink:href="#DejaVuSans-7c" transform="translate(812.979974 38.504688) scale(0.7)"/>
     </g>
    </g>
   </g>
  </g>
 </g>
 <defs>
  <clipPath id="pcac2353d44">
   <rect x="36.08149" y="3.00024" width="212.91827" height="154.34327"/>
  </clipPath>
 </defs>
</svg>
