<?xml version="1.0" encoding="utf-8" standalone="no"?>
<!DOCTYPE svg PUBLIC "-//W3C//DTD SVG 1.1//EN"
  "http://www.w3.org/Graphics/SVG/1.1/DTD/svg11.dtd">
<svg xmlns:xlink="http://www.w3.org/1999/xlink" width="504pt" height="187.2pt" viewBox="0 0 504 187.2" xmlns="http://www.w3.org/2000/svg" version="1.1">
 <metadata>
  <rdf:RDF xmlns:dc="http://purl.org/dc/elements/1.1/" xmlns:cc="http://creativecommons.org/ns#" xmlns:rdf="http://www.w3.org/1999/02/22-rdf-syntax-ns#">
   <cc:Work>
    <dc:type rdf:resource="http://purl.org/dc/dcmitype/StillImage"/>
    <dc:date>2025-08-18T21:22:43.873813</dc:date>
    <dc:format>image/svg+xml</dc:format>
    <dc:creator>
     <cc:Agent>
      <dc:title>Matplotlib v3.10.5, https://matplotlib.org/</dc:title>
     </cc:Agent>
    </dc:creator>
   </cc:Work>
  </rdf:RDF>
 </metadata>
 <defs>
  <style type="text/css">*{stroke-linejoin: round; stroke-linecap: butt}</style>
 </defs>
 <g id="figure_1">
  <g id="patch_1">
   <path d="M 0 187.2
L 504 187.2
L 504 0
L 0 0
z
" style="fill: #ffffff"/>
  </g>
  <g id="axes_1">
   <g id="patch_2">
    <path d="M 44.461178 140.937241
L 262.891166 140.937241
L 262.891166 3.00024
L 44.461178 3.00024
z
" style="fill: #ffffff"/>
   </g>
   <g id="FillBetweenPolyCollection_1">
    <path d="M 54.389813 74.313215
L 54.389813 85.716295
L 56.395598 89.120327
L 58.401383 92.482315
L 60.407168 95.789914
L 62.412953 99.030978
L 64.418738 102.193605
L 66.424523 105.266184
L 68.430308 108.237432
L 70.436094 111.096438
L 72.441879 113.832704
L 74.447664 116.436183
L 76.453449 118.897314
L 78.459234 121.207062
L 80.465019 123.356943
L 82.470804 125.339064
L 84.476589 127.146147
L 86.482374 128.771556
L 88.488159 130.209322
L 90.493944 131.454167
L 92.499729 132.501519
L 94.505514 133.347532
L 96.511299 133.9891
L 98.517084 134.423867
L 100.522869 134.650237
L 102.528654 134.667378
L 104.534439 134.475227
L 106.540224 134.07449
L 108.546009 133.466638
L 110.551794 132.653904
L 112.557579 131.639272
L 114.563364 130.426467
L 116.569149 129.019943
L 118.574934 127.424865
L 120.580719 125.647089
L 122.586504 123.693144
L 124.592289 121.570204
L 126.598074 119.286065
L 128.603859 116.849114
L 130.609644 114.268299
L 132.615429 111.553098
L 134.621214 108.71348
L 136.626999 105.759872
L 138.632784 102.70312
L 140.638569 99.554449
L 142.644354 96.325419
L 144.650139 93.027888
L 146.655924 89.673964
L 148.661709 86.275964
L 150.667494 82.846363
L 152.673279 79.397756
L 154.679064 75.942806
L 156.684849 72.494199
L 158.690634 69.064599
L 160.696419 65.666598
L 162.702204 62.312674
L 164.707989 59.015143
L 166.713775 55.786114
L 168.71956 52.637442
L 170.725345 49.58069
L 172.73113 46.627082
L 174.736915 43.787464
L 176.7427 41.072263
L 178.748485 38.491448
L 180.75427 36.054497
L 182.760055 33.770358
L 184.76584 31.647419
L 186.771625 29.693473
L 188.77741 27.915698
L 190.783195 26.320619
L 192.78898 24.914095
L 194.794765 23.70129
L 196.80055 22.686658
L 198.806335 21.873924
L 200.81212 21.266072
L 202.817905 20.865335
L 204.82369 20.673184
L 206.829475 20.690325
L 208.83526 20.916695
L 210.841045 21.351462
L 212.84683 21.99303
L 214.852615 22.839043
L 216.8584 23.886395
L 218.864185 25.13124
L 220.86997 26.569006
L 222.875755 28.194415
L 224.88154 30.001498
L 226.887325 31.983619
L 228.89311 34.133501
L 230.898895 36.443248
L 232.90468 38.904379
L 234.910465 41.507858
L 236.91625 44.244124
L 238.922035 47.10313
L 240.92782 50.074378
L 242.933605 53.146957
L 244.93939 56.309585
L 246.945175 59.550648
L 248.95096 62.858247
L 250.956745 66.220235
L 252.96253 69.624267
L 252.96253 58.221186
L 252.96253 58.221186
L 250.956745 54.817154
L 248.95096 51.455166
L 246.945175 48.147568
L 244.93939 44.906504
L 242.933605 41.743876
L 240.92782 38.671297
L 238.922035 35.700049
L 236.91625 32.841043
L 234.910465 30.104777
L 232.90468 27.501299
L 230.898895 25.040167
L 228.89311 22.73042
L 226.887325 20.580539
L 224.88154 18.598417
L 222.875755 16.791335
L 220.86997 15.165926
L 218.864185 13.728159
L 216.8584 12.483314
L 214.852615 11.435962
L 212.84683 10.589949
L 210.841045 9.948381
L 208.83526 9.513614
L 206.829475 9.287245
L 204.82369 9.270104
L 202.817905 9.462255
L 200.81212 9.862991
L 198.806335 10.470843
L 196.80055 11.283577
L 194.794765 12.298209
L 192.78898 13.511014
L 190.783195 14.917538
L 188.77741 16.512617
L 186.771625 18.290393
L 184.76584 20.244338
L 182.760055 22.367278
L 180.75427 24.651417
L 178.748485 27.088368
L 176.7427 29.669182
L 174.736915 32.384384
L 172.73113 35.224002
L 170.725345 38.177609
L 168.71956 41.234361
L 166.713775 44.383033
L 164.707989 47.612063
L 162.702204 50.909594
L 160.696419 54.263517
L 158.690634 57.661518
L 156.684849 61.091118
L 154.679064 64.539725
L 152.673279 67.994675
L 150.667494 71.443282
L 148.661709 74.872883
L 146.655924 78.270884
L 144.650139 81.624807
L 142.644354 84.922338
L 140.638569 88.151368
L 138.632784 91.30004
L 136.626999 94.356791
L 134.621214 97.310399
L 132.615429 100.150017
L 130.609644 102.865219
L 128.603859 105.446033
L 126.598074 107.882984
L 124.592289 110.167123
L 122.586504 112.290063
L 120.580719 114.244008
L 118.574934 116.021784
L 116.569149 117.616862
L 114.563364 119.023386
L 112.557579 120.236191
L 110.551794 121.250824
L 108.546009 122.063558
L 106.540224 122.671409
L 104.534439 123.072146
L 102.528654 123.264297
L 100.522869 123.247156
L 98.517084 123.020787
L 96.511299 122.58602
L 94.505514 121.944452
L 92.499729 121.098438
L 90.493944 120.051087
L 88.488159 118.806242
L 86.482374 117.368475
L 84.476589 115.743066
L 82.470804 113.935983
L 80.465019 111.953862
L 78.459234 109.803981
L 76.453449 107.494234
L 74.447664 105.033102
L 72.441879 102.429623
L 70.436094 99.693357
L 68.430308 96.834351
L 66.424523 93.863104
L 64.418738 90.790525
L 62.412953 87.627897
L 60.407168 84.386833
L 58.401383 81.079235
L 56.395598 77.717247
L 54.389813 74.313215
z
" clip-path="url(#pc3fbaa9958)" style="fill: #1f77b4; fill-opacity: 0.2"/>
   </g>
   <g id="FillBetweenPolyCollection_2">
    <path d="M 54.389813 122.712022
L 54.389813 134.115103
L 56.395598 133.524132
L 58.401383 132.728068
L 60.407168 131.729833
L 62.412953 130.533093
L 64.418738 129.142242
L 66.424523 127.562388
L 68.430308 125.799332
L 70.436094 123.859547
L 72.441879 121.750156
L 74.447664 119.478906
L 76.453449 117.054135
L 78.459234 114.484748
L 80.465019 111.78018
L 82.470804 108.950361
L 84.476589 106.005682
L 86.482374 102.956957
L 88.488159 99.815379
L 90.493944 96.592486
L 92.499729 93.300111
L 94.505514 89.950343
L 96.511299 86.555484
L 98.517084 83.127998
L 100.522869 79.680472
L 102.528654 76.225564
L 104.534439 72.775961
L 106.540224 69.34433
L 108.546009 65.943272
L 110.551794 62.585275
L 112.557579 59.28267
L 114.563364 56.047583
L 116.569149 52.891894
L 118.574934 49.827191
L 120.580719 46.864727
L 122.586504 44.01538
L 124.592289 41.289613
L 126.598074 38.697434
L 128.603859 36.248363
L 130.609644 33.951392
L 132.615429 31.814955
L 134.621214 29.846897
L 136.626999 28.054446
L 138.632784 26.444182
L 140.638569 25.022019
L 142.644354 23.793179
L 144.650139 22.762175
L 146.655924 21.932791
L 148.661709 21.308073
L 150.667494 20.890316
L 152.673279 20.681053
L 154.679064 20.681053
L 156.684849 20.890316
L 158.690634 21.308073
L 160.696419 21.932791
L 162.702204 22.762175
L 164.707989 23.793179
L 166.713775 25.022019
L 168.71956 26.444182
L 170.725345 28.054446
L 172.73113 29.846897
L 174.736915 31.814955
L 176.7427 33.951392
L 178.748485 36.248363
L 180.75427 38.697434
L 182.760055 41.289613
L 184.76584 44.01538
L 186.771625 46.864727
L 188.77741 49.827191
L 190.783195 52.891894
L 192.78898 56.047583
L 194.794765 59.28267
L 196.80055 62.585275
L 198.806335 65.943272
L 200.81212 69.34433
L 202.817905 72.775961
L 204.82369 76.225564
L 206.829475 79.680472
L 208.83526 83.127998
L 210.841045 86.555484
L 212.84683 89.950343
L 214.852615 93.300111
L 216.8584 96.592486
L 218.864185 99.815379
L 220.86997 102.956957
L 222.875755 106.005682
L 224.88154 108.950361
L 226.887325 111.78018
L 228.89311 114.484748
L 230.898895 117.054135
L 232.90468 119.478906
L 234.910465 121.750156
L 236.91625 123.859547
L 238.922035 125.799332
L 240.92782 127.562388
L 242.933605 129.142242
L 244.93939 130.533093
L 246.945175 131.729833
L 248.95096 132.728068
L 250.956745 133.524132
L 252.96253 134.115103
L 252.96253 122.712022
L 252.96253 122.712022
L 250.956745 122.121051
L 248.95096 121.324987
L 246.945175 120.326752
L 244.93939 119.130012
L 242.933605 117.739162
L 240.92782 116.159308
L 238.922035 114.396251
L 236.91625 112.456466
L 234.910465 110.347076
L 232.90468 108.075825
L 230.898895 105.651054
L 228.89311 103.081668
L 226.887325 100.377099
L 224.88154 97.54728
L 222.875755 94.602601
L 220.86997 91.553876
L 218.864185 88.412299
L 216.8584 85.189405
L 214.852615 81.89703
L 212.84683 78.547262
L 210.841045 75.152403
L 208.83526 71.724917
L 206.829475 68.277391
L 204.82369 64.822483
L 202.817905 61.37288
L 200.81212 57.94125
L 198.806335 54.540191
L 196.80055 51.182194
L 194.794765 47.879589
L 192.78898 44.644502
L 190.783195 41.488814
L 188.77741 38.424111
L 186.771625 35.461646
L 184.76584 32.612299
L 182.760055 29.886532
L 180.75427 27.294354
L 178.748485 24.845282
L 176.7427 22.548311
L 174.736915 20.411874
L 172.73113 18.443816
L 170.725345 16.651365
L 168.71956 15.041102
L 166.713775 13.618939
L 164.707989 12.390099
L 162.702204 11.359094
L 160.696419 10.52971
L 158.690634 9.904993
L 156.684849 9.487235
L 154.679064 9.277973
L 152.673279 9.277973
L 150.667494 9.487235
L 148.661709 9.904993
L 146.655924 10.52971
L 144.650139 11.359094
L 142.644354 12.390099
L 140.638569 13.618939
L 138.632784 15.041102
L 136.626999 16.651365
L 134.621214 18.443816
L 132.615429 20.411874
L 130.609644 22.548311
L 128.603859 24.845282
L 126.598074 27.294354
L 124.592289 29.886532
L 122.586504 32.612299
L 120.580719 35.461646
L 118.574934 38.424111
L 116.569149 41.488814
L 114.563364 44.644502
L 112.557579 47.879589
L 110.551794 51.182194
L 108.546009 54.540191
L 106.540224 57.94125
L 104.534439 61.37288
L 102.528654 64.822483
L 100.522869 68.277391
L 98.517084 71.724917
L 96.511299 75.152403
L 94.505514 78.547262
L 92.499729 81.89703
L 90.493944 85.189405
L 88.488159 88.412299
L 86.482374 91.553876
L 84.476589 94.602601
L 82.470804 97.54728
L 80.465019 100.377099
L 78.459234 103.081668
L 76.453449 105.651054
L 74.447664 108.075825
L 72.441879 110.347076
L 70.436094 112.456466
L 68.430308 114.396251
L 66.424523 116.159308
L 64.418738 117.739162
L 62.412953 119.130012
L 60.407168 120.326752
L 58.401383 121.324987
L 56.395598 122.121051
L 54.389813 122.712022
z
" clip-path="url(#pc3fbaa9958)" style="fill: #ff7f0e; fill-opacity: 0.2"/>
   </g>
   <g id="matplotlib.axis_1">
    <g id="xtick_1">
     <g id="line2d_1">
      <defs>
       <path id="ma43f8ba738" d="M 0 0
L 0 -5
" style="stroke: #000000"/>
      </defs>
      <g>
       <use xlink:href="#ma43f8ba738" x="54.389813" y="140.937241" style="fill: #ffffff; stroke: #000000"/>
      </g>
     </g>
     <g id="line2d_2">
      <defs>
       <path id="ma3305ae6b1" d="M 0 0
L 0 5
" style="stroke: #000000"/>
      </defs>
      <g>
       <use xlink:href="#ma3305ae6b1" x="54.389813" y="3.00024" style="fill: #ffffff; stroke: #000000"/>
      </g>
     </g>
     <g id="text_1">
      <!-- −3 -->
      <g transform="translate(47.01872 152.035679) scale(0.1 -0.1)">
       <defs>
        <path id="DejaVuSans-2212" d="M 678 2272
L 4684 2272
L 4684 1741
L 678 1741
L 678 2272
z
" transform="scale(0.015625)"/>
        <path id="DejaVuSans-33" d="M 2597 2516
Q 3050 2419 3304 2112
Q 3559 1806 3559 1356
Q 3559 666 3084 287
Q 2609 -91 1734 -91
Q 1441 -91 1130 -33
Q 819 25 488 141
L 488 750
Q 750 597 1062 519
Q 1375 441 1716 441
Q 2309 441 2620 675
Q 2931 909 2931 1356
Q 2931 1769 2642 2001
Q 2353 2234 1838 2234
L 1294 2234
L 1294 2753
L 1863 2753
Q 2328 2753 2575 2939
Q 2822 3125 2822 3475
Q 2822 3834 2567 4026
Q 2313 4219 1838 4219
Q 1578 4219 1281 4162
Q 984 4106 628 3988
L 628 4550
Q 988 4650 1302 4700
Q 1616 4750 1894 4750
Q 2613 4750 3031 4423
Q 3450 4097 3450 3541
Q 3450 3153 3228 2886
Q 3006 2619 2597 2516
z
" transform="scale(0.015625)"/>
       </defs>
       <use xlink:href="#DejaVuSans-2212"/>
       <use xlink:href="#DejaVuSans-33" transform="translate(83.789062 0)"/>
      </g>
     </g>
    </g>
    <g id="xtick_2">
     <g id="line2d_3">
      <g>
       <use xlink:href="#ma43f8ba738" x="87.485266" y="140.937241" style="fill: #ffffff; stroke: #000000"/>
      </g>
     </g>
     <g id="line2d_4">
      <g>
       <use xlink:href="#ma3305ae6b1" x="87.485266" y="3.00024" style="fill: #ffffff; stroke: #000000"/>
      </g>
     </g>
     <g id="text_2">
      <!-- −2 -->
      <g transform="translate(80.114172 152.035679) scale(0.1 -0.1)">
       <defs>
        <path id="DejaVuSans-32" d="M 1228 531
L 3431 531
L 3431 0
L 469 0
L 469 531
Q 828 903 1448 1529
Q 2069 2156 2228 2338
Q 2531 2678 2651 2914
Q 2772 3150 2772 3378
Q 2772 3750 2511 3984
Q 2250 4219 1831 4219
Q 1534 4219 1204 4116
Q 875 4013 500 3803
L 500 4441
Q 881 4594 1212 4672
Q 1544 4750 1819 4750
Q 2544 4750 2975 4387
Q 3406 4025 3406 3419
Q 3406 3131 3298 2873
Q 3191 2616 2906 2266
Q 2828 2175 2409 1742
Q 1991 1309 1228 531
z
" transform="scale(0.015625)"/>
       </defs>
       <use xlink:href="#DejaVuSans-2212"/>
       <use xlink:href="#DejaVuSans-32" transform="translate(83.789062 0)"/>
      </g>
     </g>
    </g>
    <g id="xtick_3">
     <g id="line2d_5">
      <g>
       <use xlink:href="#ma43f8ba738" x="120.580719" y="140.937241" style="fill: #ffffff; stroke: #000000"/>
      </g>
     </g>
     <g id="line2d_6">
      <g>
       <use xlink:href="#ma3305ae6b1" x="120.580719" y="3.00024" style="fill: #ffffff; stroke: #000000"/>
      </g>
     </g>
     <g id="text_3">
      <!-- −1 -->
      <g transform="translate(113.209625 152.035679) scale(0.1 -0.1)">
       <defs>
        <path id="DejaVuSans-31" d="M 794 531
L 1825 531
L 1825 4091
L 703 3866
L 703 4441
L 1819 4666
L 2450 4666
L 2450 531
L 3481 531
L 3481 0
L 794 0
L 794 531
z
" transform="scale(0.015625)"/>
       </defs>
       <use xlink:href="#DejaVuSans-2212"/>
       <use xlink:href="#DejaVuSans-31" transform="translate(83.789062 0)"/>
      </g>
     </g>
    </g>
    <g id="xtick_4">
     <g id="line2d_7">
      <g>
       <use xlink:href="#ma43f8ba738" x="153.676172" y="140.937241" style="fill: #ffffff; stroke: #000000"/>
      </g>
     </g>
     <g id="line2d_8">
      <g>
       <use xlink:href="#ma3305ae6b1" x="153.676172" y="3.00024" style="fill: #ffffff; stroke: #000000"/>
      </g>
     </g>
     <g id="text_4">
      <!-- 0 -->
      <g transform="translate(150.494922 152.035679) scale(0.1 -0.1)">
       <defs>
        <path id="DejaVuSans-30" d="M 2034 4250
Q 1547 4250 1301 3770
Q 1056 3291 1056 2328
Q 1056 1369 1301 889
Q 1547 409 2034 409
Q 2525 409 2770 889
Q 3016 1369 3016 2328
Q 3016 3291 2770 3770
Q 2525 4250 2034 4250
z
M 2034 4750
Q 2819 4750 3233 4129
Q 3647 3509 3647 2328
Q 3647 1150 3233 529
Q 2819 -91 2034 -91
Q 1250 -91 836 529
Q 422 1150 422 2328
Q 422 3509 836 4129
Q 1250 4750 2034 4750
z
" transform="scale(0.015625)"/>
       </defs>
       <use xlink:href="#DejaVuSans-30"/>
      </g>
     </g>
    </g>
    <g id="xtick_5">
     <g id="line2d_9">
      <g>
       <use xlink:href="#ma43f8ba738" x="186.771625" y="140.937241" style="fill: #ffffff; stroke: #000000"/>
      </g>
     </g>
     <g id="line2d_10">
      <g>
       <use xlink:href="#ma3305ae6b1" x="186.771625" y="3.00024" style="fill: #ffffff; stroke: #000000"/>
      </g>
     </g>
     <g id="text_5">
      <!-- 1 -->
      <g transform="translate(183.590375 152.035679) scale(0.1 -0.1)">
       <use xlink:href="#DejaVuSans-31"/>
      </g>
     </g>
    </g>
    <g id="xtick_6">
     <g id="line2d_11">
      <g>
       <use xlink:href="#ma43f8ba738" x="219.867078" y="140.937241" style="fill: #ffffff; stroke: #000000"/>
      </g>
     </g>
     <g id="line2d_12">
      <g>
       <use xlink:href="#ma3305ae6b1" x="219.867078" y="3.00024" style="fill: #ffffff; stroke: #000000"/>
      </g>
     </g>
     <g id="text_6">
      <!-- 2 -->
      <g transform="translate(216.685828 152.035679) scale(0.1 -0.1)">
       <use xlink:href="#DejaVuSans-32"/>
      </g>
     </g>
    </g>
    <g id="xtick_7">
     <g id="line2d_13">
      <g>
       <use xlink:href="#ma43f8ba738" x="252.96253" y="140.937241" style="fill: #ffffff; stroke: #000000"/>
      </g>
     </g>
     <g id="line2d_14">
      <g>
       <use xlink:href="#ma3305ae6b1" x="252.96253" y="3.00024" style="fill: #ffffff; stroke: #000000"/>
      </g>
     </g>
     <g id="text_7">
      <!-- 3 -->
      <g transform="translate(249.78128 152.035679) scale(0.1 -0.1)">
       <use xlink:href="#DejaVuSans-33"/>
      </g>
     </g>
    </g>
    <g id="text_8">
     <!-- X-axis -->
     <g transform="translate(138.680078 165.713804) scale(0.1 -0.1)">
      <defs>
       <path id="DejaVuSans-58" d="M 403 4666
L 1081 4666
L 2241 2931
L 3406 4666
L 4084 4666
L 2584 2425
L 4184 0
L 3506 0
L 2194 1984
L 872 0
L 191 0
L 1856 2491
L 403 4666
z
" transform="scale(0.015625)"/>
       <path id="DejaVuSans-2d" d="M 313 2009
L 1997 2009
L 1997 1497
L 313 1497
L 313 2009
z
" transform="scale(0.015625)"/>
       <path id="DejaVuSans-61" d="M 2194 1759
Q 1497 1759 1228 1600
Q 959 1441 959 1056
Q 959 750 1161 570
Q 1363 391 1709 391
Q 2188 391 2477 730
Q 2766 1069 2766 1631
L 2766 1759
L 2194 1759
z
M 3341 1997
L 3341 0
L 2766 0
L 2766 531
Q 2569 213 2275 61
Q 1981 -91 1556 -91
Q 1019 -91 701 211
Q 384 513 384 1019
Q 384 1609 779 1909
Q 1175 2209 1959 2209
L 2766 2209
L 2766 2266
Q 2766 2663 2505 2880
Q 2244 3097 1772 3097
Q 1472 3097 1187 3025
Q 903 2953 641 2809
L 641 3341
Q 956 3463 1253 3523
Q 1550 3584 1831 3584
Q 2591 3584 2966 3190
Q 3341 2797 3341 1997
z
" transform="scale(0.015625)"/>
       <path id="DejaVuSans-78" d="M 3513 3500
L 2247 1797
L 3578 0
L 2900 0
L 1881 1375
L 863 0
L 184 0
L 1544 1831
L 300 3500
L 978 3500
L 1906 2253
L 2834 3500
L 3513 3500
z
" transform="scale(0.015625)"/>
       <path id="DejaVuSans-69" d="M 603 3500
L 1178 3500
L 1178 0
L 603 0
L 603 3500
z
M 603 4863
L 1178 4863
L 1178 4134
L 603 4134
L 603 4863
z
" transform="scale(0.015625)"/>
       <path id="DejaVuSans-73" d="M 2834 3397
L 2834 2853
Q 2591 2978 2328 3040
Q 2066 3103 1784 3103
Q 1356 3103 1142 2972
Q 928 2841 928 2578
Q 928 2378 1081 2264
Q 1234 2150 1697 2047
L 1894 2003
Q 2506 1872 2764 1633
Q 3022 1394 3022 966
Q 3022 478 2636 193
Q 2250 -91 1575 -91
Q 1294 -91 989 -36
Q 684 19 347 128
L 347 722
Q 666 556 975 473
Q 1284 391 1588 391
Q 1994 391 2212 530
Q 2431 669 2431 922
Q 2431 1156 2273 1281
Q 2116 1406 1581 1522
L 1381 1569
Q 847 1681 609 1914
Q 372 2147 372 2553
Q 372 3047 722 3315
Q 1072 3584 1716 3584
Q 2034 3584 2315 3537
Q 2597 3491 2834 3397
z
" transform="scale(0.015625)"/>
      </defs>
      <use xlink:href="#DejaVuSans-58"/>
      <use xlink:href="#DejaVuSans-2d" transform="translate(63.505859 0)"/>
      <use xlink:href="#DejaVuSans-61" transform="translate(99.589844 0)"/>
      <use xlink:href="#DejaVuSans-78" transform="translate(160.869141 0)"/>
      <use xlink:href="#DejaVuSans-69" transform="translate(220.048828 0)"/>
      <use xlink:href="#DejaVuSans-73" transform="translate(247.832031 0)"/>
     </g>
    </g>
   </g>
   <g id="matplotlib.axis_2">
    <g id="ytick_1">
     <g id="line2d_15">
      <defs>
       <path id="m20f2823a81" d="M 0 0
L 5 0
" style="stroke: #000000"/>
      </defs>
      <g>
       <use xlink:href="#m20f2823a81" x="44.461178" y="128.984144" style="fill: #ffffff; stroke: #000000"/>
      </g>
     </g>
     <g id="line2d_16">
      <defs>
       <path id="m52873b4123" d="M 0 0
L -5 0
" style="stroke: #000000"/>
      </defs>
      <g>
       <use xlink:href="#m52873b4123" x="262.891166" y="128.984144" style="fill: #ffffff; stroke: #000000"/>
      </g>
     </g>
     <g id="text_9">
      <!-- −1.0 -->
      <g transform="translate(16.678365 132.783363) scale(0.1 -0.1)">
       <defs>
        <path id="DejaVuSans-2e" d="M 684 794
L 1344 794
L 1344 0
L 684 0
L 684 794
z
" transform="scale(0.015625)"/>
       </defs>
       <use xlink:href="#DejaVuSans-2212"/>
       <use xlink:href="#DejaVuSans-31" transform="translate(83.789062 0)"/>
       <use xlink:href="#DejaVuSans-2e" transform="translate(147.412109 0)"/>
       <use xlink:href="#DejaVuSans-30" transform="translate(179.199219 0)"/>
      </g>
     </g>
    </g>
    <g id="ytick_2">
     <g id="line2d_17">
      <g>
       <use xlink:href="#m20f2823a81" x="44.461178" y="100.476443" style="fill: #ffffff; stroke: #000000"/>
      </g>
     </g>
     <g id="line2d_18">
      <g>
       <use xlink:href="#m52873b4123" x="262.891166" y="100.476443" style="fill: #ffffff; stroke: #000000"/>
      </g>
     </g>
     <g id="text_10">
      <!-- −0.5 -->
      <g transform="translate(16.678365 104.275661) scale(0.1 -0.1)">
       <defs>
        <path id="DejaVuSans-35" d="M 691 4666
L 3169 4666
L 3169 4134
L 1269 4134
L 1269 2991
Q 1406 3038 1543 3061
Q 1681 3084 1819 3084
Q 2600 3084 3056 2656
Q 3513 2228 3513 1497
Q 3513 744 3044 326
Q 2575 -91 1722 -91
Q 1428 -91 1123 -41
Q 819 9 494 109
L 494 744
Q 775 591 1075 516
Q 1375 441 1709 441
Q 2250 441 2565 725
Q 2881 1009 2881 1497
Q 2881 1984 2565 2268
Q 2250 2553 1709 2553
Q 1456 2553 1204 2497
Q 953 2441 691 2322
L 691 4666
z
" transform="scale(0.015625)"/>
       </defs>
       <use xlink:href="#DejaVuSans-2212"/>
       <use xlink:href="#DejaVuSans-30" transform="translate(83.789062 0)"/>
       <use xlink:href="#DejaVuSans-2e" transform="translate(147.412109 0)"/>
       <use xlink:href="#DejaVuSans-35" transform="translate(179.199219 0)"/>
      </g>
     </g>
    </g>
    <g id="ytick_3">
     <g id="line2d_19">
      <g>
       <use xlink:href="#m20f2823a81" x="44.461178" y="71.968741" style="fill: #ffffff; stroke: #000000"/>
      </g>
     </g>
     <g id="line2d_20">
      <g>
       <use xlink:href="#m52873b4123" x="262.891166" y="71.968741" style="fill: #ffffff; stroke: #000000"/>
      </g>
     </g>
     <g id="text_11">
      <!-- 0.0 -->
      <g transform="translate(25.058053 75.767959) scale(0.1 -0.1)">
       <use xlink:href="#DejaVuSans-30"/>
       <use xlink:href="#DejaVuSans-2e" transform="translate(63.623047 0)"/>
       <use xlink:href="#DejaVuSans-30" transform="translate(95.410156 0)"/>
      </g>
     </g>
    </g>
    <g id="ytick_4">
     <g id="line2d_21">
      <g>
       <use xlink:href="#m20f2823a81" x="44.461178" y="43.461039" style="fill: #ffffff; stroke: #000000"/>
      </g>
     </g>
     <g id="line2d_22">
      <g>
       <use xlink:href="#m52873b4123" x="262.891166" y="43.461039" style="fill: #ffffff; stroke: #000000"/>
      </g>
     </g>
     <g id="text_12">
      <!-- 0.5 -->
      <g transform="translate(25.058053 47.260258) scale(0.1 -0.1)">
       <use xlink:href="#DejaVuSans-30"/>
       <use xlink:href="#DejaVuSans-2e" transform="translate(63.623047 0)"/>
       <use xlink:href="#DejaVuSans-35" transform="translate(95.410156 0)"/>
      </g>
     </g>
    </g>
    <g id="ytick_5">
     <g id="line2d_23">
      <g>
       <use xlink:href="#m20f2823a81" x="44.461178" y="14.953337" style="fill: #ffffff; stroke: #000000"/>
      </g>
     </g>
     <g id="line2d_24">
      <g>
       <use xlink:href="#m52873b4123" x="262.891166" y="14.953337" style="fill: #ffffff; stroke: #000000"/>
      </g>
     </g>
     <g id="text_13">
      <!-- 1.0 -->
      <g transform="translate(25.058053 18.752556) scale(0.1 -0.1)">
       <use xlink:href="#DejaVuSans-31"/>
       <use xlink:href="#DejaVuSans-2e" transform="translate(63.623047 0)"/>
       <use xlink:href="#DejaVuSans-30" transform="translate(95.410156 0)"/>
      </g>
     </g>
    </g>
    <g id="text_14">
     <!-- Y-axis -->
     <g transform="translate(10.598678 86.249991) rotate(-90) scale(0.1 -0.1)">
      <defs>
       <path id="DejaVuSans-59" d="M -13 4666
L 666 4666
L 1959 2747
L 3244 4666
L 3922 4666
L 2272 2222
L 2272 0
L 1638 0
L 1638 2222
L -13 4666
z
" transform="scale(0.015625)"/>
      </defs>
      <use xlink:href="#DejaVuSans-59"/>
      <use xlink:href="#DejaVuSans-2d" transform="translate(49.208984 0)"/>
      <use xlink:href="#DejaVuSans-61" transform="translate(85.292969 0)"/>
      <use xlink:href="#DejaVuSans-78" transform="translate(146.572266 0)"/>
      <use xlink:href="#DejaVuSans-69" transform="translate(205.751953 0)"/>
      <use xlink:href="#DejaVuSans-73" transform="translate(233.535156 0)"/>
     </g>
    </g>
   </g>
   <g id="line2d_25">
    <path d="M 54.389813 80.014755
L 56.395598 83.418787
L 58.401383 86.780775
L 60.407168 90.088373
L 62.412953 93.329437
L 64.418738 96.492065
L 66.424523 99.564644
L 68.430308 102.535892
L 70.436094 105.394898
L 72.441879 108.131164
L 74.447664 110.734643
L 76.453449 113.195774
L 78.459234 115.505521
L 80.465019 117.655402
L 82.470804 119.637524
L 84.476589 121.444607
L 86.482374 123.070016
L 88.488159 124.507782
L 90.493944 125.752627
L 92.499729 126.799979
L 94.505514 127.645992
L 96.511299 128.28756
L 98.517084 128.722327
L 100.522869 128.948697
L 102.528654 128.965837
L 104.534439 128.773687
L 106.540224 128.37295
L 108.546009 127.765098
L 110.551794 126.952364
L 112.557579 125.937732
L 114.563364 124.724927
L 116.569149 123.318403
L 118.574934 121.723324
L 120.580719 119.945549
L 122.586504 117.991603
L 124.592289 115.868663
L 126.598074 113.584524
L 128.603859 111.147573
L 130.609644 108.566759
L 132.615429 105.851558
L 134.621214 103.01194
L 136.626999 100.058332
L 138.632784 97.00158
L 140.638569 93.852908
L 142.644354 90.623878
L 144.650139 87.326348
L 146.655924 83.972424
L 148.661709 80.574423
L 150.667494 77.144823
L 152.673279 73.696216
L 154.679064 70.241266
L 156.684849 66.792659
L 158.690634 63.363058
L 160.696419 59.965057
L 162.702204 56.611134
L 164.707989 53.313603
L 166.713775 50.084573
L 168.71956 46.935902
L 170.725345 43.87915
L 172.73113 40.925542
L 174.736915 38.085924
L 176.7427 35.370723
L 178.748485 32.789908
L 180.75427 30.352957
L 182.760055 28.068818
L 184.76584 25.945878
L 186.771625 23.991933
L 188.77741 22.214157
L 190.783195 20.619079
L 192.78898 19.212555
L 194.794765 17.99975
L 196.80055 16.985117
L 198.806335 16.172383
L 200.81212 15.564532
L 202.817905 15.163795
L 204.82369 14.971644
L 206.829475 14.988785
L 208.83526 15.215154
L 210.841045 15.649921
L 212.84683 16.291489
L 214.852615 17.137503
L 216.8584 18.184855
L 218.864185 19.429699
L 220.86997 20.867466
L 222.875755 22.492875
L 224.88154 24.299958
L 226.887325 26.282079
L 228.89311 28.43196
L 230.898895 30.741707
L 232.90468 33.202839
L 234.910465 35.806318
L 236.91625 38.542584
L 238.922035 41.40159
L 240.92782 44.372837
L 242.933605 47.445416
L 244.93939 50.608044
L 246.945175 53.849108
L 248.95096 57.156707
L 250.956745 60.518694
L 252.96253 63.922727
" clip-path="url(#pc3fbaa9958)" style="fill: none; stroke: #1f77b4; stroke-width: 1.5; stroke-linecap: square"/>
   </g>
   <g id="line2d_26">
    <path d="M 54.389813 128.413562
L 56.395598 127.822592
L 58.401383 127.026528
L 60.407168 126.028293
L 62.412953 124.831553
L 64.418738 123.440702
L 66.424523 121.860848
L 68.430308 120.097791
L 70.436094 118.158007
L 72.441879 116.048616
L 74.447664 113.777365
L 76.453449 111.352595
L 78.459234 108.783208
L 80.465019 106.078639
L 82.470804 103.24882
L 84.476589 100.304142
L 86.482374 97.255416
L 88.488159 94.113839
L 90.493944 90.890945
L 92.499729 87.59857
L 94.505514 84.248803
L 96.511299 80.853943
L 98.517084 77.426457
L 100.522869 73.978931
L 102.528654 70.524024
L 104.534439 67.074421
L 106.540224 63.64279
L 108.546009 60.241732
L 110.551794 56.883735
L 112.557579 53.581129
L 114.563364 50.346043
L 116.569149 47.190354
L 118.574934 44.125651
L 120.580719 41.163187
L 122.586504 38.31384
L 124.592289 35.588072
L 126.598074 32.995894
L 128.603859 30.546822
L 130.609644 28.249851
L 132.615429 26.113414
L 134.621214 24.145357
L 136.626999 22.352905
L 138.632784 20.742642
L 140.638569 19.320479
L 142.644354 18.091639
L 144.650139 17.060634
L 146.655924 16.23125
L 148.661709 15.606533
L 150.667494 15.188776
L 152.673279 14.979513
L 154.679064 14.979513
L 156.684849 15.188776
L 158.690634 15.606533
L 160.696419 16.23125
L 162.702204 17.060634
L 164.707989 18.091639
L 166.713775 19.320479
L 168.71956 20.742642
L 170.725345 22.352905
L 172.73113 24.145357
L 174.736915 26.113414
L 176.7427 28.249851
L 178.748485 30.546822
L 180.75427 32.995894
L 182.760055 35.588072
L 184.76584 38.31384
L 186.771625 41.163187
L 188.77741 44.125651
L 190.783195 47.190354
L 192.78898 50.346043
L 194.794765 53.581129
L 196.80055 56.883735
L 198.806335 60.241732
L 200.81212 63.64279
L 202.817905 67.074421
L 204.82369 70.524024
L 206.829475 73.978931
L 208.83526 77.426457
L 210.841045 80.853943
L 212.84683 84.248803
L 214.852615 87.59857
L 216.8584 90.890945
L 218.864185 94.113839
L 220.86997 97.255416
L 222.875755 100.304142
L 224.88154 103.24882
L 226.887325 106.078639
L 228.89311 108.783208
L 230.898895 111.352595
L 232.90468 113.777365
L 234.910465 116.048616
L 236.91625 118.158007
L 238.922035 120.097791
L 240.92782 121.860848
L 242.933605 123.440702
L 244.93939 124.831553
L 246.945175 126.028293
L 248.95096 127.026528
L 250.956745 127.822592
L 252.96253 128.413562
" clip-path="url(#pc3fbaa9958)" style="fill: none; stroke: #ff7f0e; stroke-width: 1.5; stroke-linecap: square"/>
   </g>
   <g id="patch_3">
    <path d="M 44.461178 140.937241
L 44.461178 3.00024
" style="fill: none; stroke: #000000; stroke-linejoin: miter; stroke-linecap: square"/>
   </g>
   <g id="patch_4">
    <path d="M 262.891166 140.937241
L 262.891166 3.00024
" style="fill: none; stroke: #000000; stroke-linejoin: miter; stroke-linecap: square"/>
   </g>
   <g id="patch_5">
    <path d="M 44.461178 140.937241
L 262.891166 140.937241
" style="fill: none; stroke: #000000; stroke-linejoin: miter; stroke-linecap: square"/>
   </g>
   <g id="patch_6">
    <path d="M 44.461178 3.00024
L 262.891166 3.00024
" style="fill: none; stroke: #000000; stroke-linejoin: miter; stroke-linecap: square"/>
   </g>
   <g id="legend_1">
    <g id="line2d_27">
     <path d="M 92.077734 174.635505
L 102.077734 174.635505
L 112.077734 174.635505
" style="fill: none; stroke: #1f77b4; stroke-width: 1.5; stroke-linecap: square"/>
    </g>
    <g id="text_15">
     <!-- Sine -->
     <g transform="translate(116.077734 178.135505) scale(0.1 -0.1)">
      <defs>
       <path id="DejaVuSans-53" d="M 3425 4513
L 3425 3897
Q 3066 4069 2747 4153
Q 2428 4238 2131 4238
Q 1616 4238 1336 4038
Q 1056 3838 1056 3469
Q 1056 3159 1242 3001
Q 1428 2844 1947 2747
L 2328 2669
Q 3034 2534 3370 2195
Q 3706 1856 3706 1288
Q 3706 609 3251 259
Q 2797 -91 1919 -91
Q 1588 -91 1214 -16
Q 841 59 441 206
L 441 856
Q 825 641 1194 531
Q 1563 422 1919 422
Q 2459 422 2753 634
Q 3047 847 3047 1241
Q 3047 1584 2836 1778
Q 2625 1972 2144 2069
L 1759 2144
Q 1053 2284 737 2584
Q 422 2884 422 3419
Q 422 4038 858 4394
Q 1294 4750 2059 4750
Q 2388 4750 2728 4690
Q 3069 4631 3425 4513
z
" transform="scale(0.015625)"/>
       <path id="DejaVuSans-6e" d="M 3513 2113
L 3513 0
L 2938 0
L 2938 2094
Q 2938 2591 2744 2837
Q 2550 3084 2163 3084
Q 1697 3084 1428 2787
Q 1159 2491 1159 1978
L 1159 0
L 581 0
L 581 3500
L 1159 3500
L 1159 2956
Q 1366 3272 1645 3428
Q 1925 3584 2291 3584
Q 2894 3584 3203 3211
Q 3513 2838 3513 2113
z
" transform="scale(0.015625)"/>
       <path id="DejaVuSans-65" d="M 3597 1894
L 3597 1613
L 953 1613
Q 991 1019 1311 708
Q 1631 397 2203 397
Q 2534 397 2845 478
Q 3156 559 3463 722
L 3463 178
Q 3153 47 2828 -22
Q 2503 -91 2169 -91
Q 1331 -91 842 396
Q 353 884 353 1716
Q 353 2575 817 3079
Q 1281 3584 2069 3584
Q 2775 3584 3186 3129
Q 3597 2675 3597 1894
z
M 3022 2063
Q 3016 2534 2758 2815
Q 2500 3097 2075 3097
Q 1594 3097 1305 2825
Q 1016 2553 972 2059
L 3022 2063
z
" transform="scale(0.015625)"/>
      </defs>
      <use xlink:href="#DejaVuSans-53"/>
      <use xlink:href="#DejaVuSans-69" transform="translate(63.476562 0)"/>
      <use xlink:href="#DejaVuSans-6e" transform="translate(91.259766 0)"/>
      <use xlink:href="#DejaVuSans-65" transform="translate(154.638672 0)"/>
     </g>
    </g>
    <g id="line2d_28">
     <path d="M 157.694922 174.635505
L 167.694922 174.635505
L 177.694922 174.635505
" style="fill: none; stroke: #ff7f0e; stroke-width: 1.5; stroke-linecap: square"/>
    </g>
    <g id="text_16">
     <!-- Cosine -->
     <g transform="translate(181.694922 178.135505) scale(0.1 -0.1)">
      <defs>
       <path id="DejaVuSans-43" d="M 4122 4306
L 4122 3641
Q 3803 3938 3442 4084
Q 3081 4231 2675 4231
Q 1875 4231 1450 3742
Q 1025 3253 1025 2328
Q 1025 1406 1450 917
Q 1875 428 2675 428
Q 3081 428 3442 575
Q 3803 722 4122 1019
L 4122 359
Q 3791 134 3420 21
Q 3050 -91 2638 -91
Q 1578 -91 968 557
Q 359 1206 359 2328
Q 359 3453 968 4101
Q 1578 4750 2638 4750
Q 3056 4750 3426 4639
Q 3797 4528 4122 4306
z
" transform="scale(0.015625)"/>
       <path id="DejaVuSans-6f" d="M 1959 3097
Q 1497 3097 1228 2736
Q 959 2375 959 1747
Q 959 1119 1226 758
Q 1494 397 1959 397
Q 2419 397 2687 759
Q 2956 1122 2956 1747
Q 2956 2369 2687 2733
Q 2419 3097 1959 3097
z
M 1959 3584
Q 2709 3584 3137 3096
Q 3566 2609 3566 1747
Q 3566 888 3137 398
Q 2709 -91 1959 -91
Q 1206 -91 779 398
Q 353 888 353 1747
Q 353 2609 779 3096
Q 1206 3584 1959 3584
z
" transform="scale(0.015625)"/>
      </defs>
      <use xlink:href="#DejaVuSans-43"/>
      <use xlink:href="#DejaVuSans-6f" transform="translate(69.824219 0)"/>
      <use xlink:href="#DejaVuSans-73" transform="translate(131.005859 0)"/>
      <use xlink:href="#DejaVuSans-69" transform="translate(183.105469 0)"/>
      <use xlink:href="#DejaVuSans-6e" transform="translate(210.888672 0)"/>
      <use xlink:href="#DejaVuSans-65" transform="translate(274.267578 0)"/>
     </g>
    </g>
   </g>
  </g>
  <g id="axes_2">
   <g id="patch_7">
    <path d="M 282.569771 140.937241
L 500.99976 140.937241
L 500.99976 3.00024
L 282.569771 3.00024
z
" style="fill: #ffffff"/>
   </g>
   <g id="matplotlib.axis_3">
    <g id="xtick_8">
     <g id="line2d_29">
      <g>
       <use xlink:href="#ma43f8ba738" x="292.466517" y="140.937241" style="fill: #ffffff; stroke: #000000"/>
      </g>
     </g>
     <g id="line2d_30">
      <g>
       <use xlink:href="#ma3305ae6b1" x="292.466517" y="3.00024" style="fill: #ffffff; stroke: #000000"/>
      </g>
     </g>
     <g id="text_17">
      <!-- −1.0 -->
      <g transform="translate(280.325111 152.035679) scale(0.1 -0.1)">
       <use xlink:href="#DejaVuSans-2212"/>
       <use xlink:href="#DejaVuSans-31" transform="translate(83.789062 0)"/>
       <use xlink:href="#DejaVuSans-2e" transform="translate(147.412109 0)"/>
       <use xlink:href="#DejaVuSans-30" transform="translate(179.199219 0)"/>
      </g>
     </g>
    </g>
    <g id="xtick_9">
     <g id="line2d_31">
      <g>
       <use xlink:href="#ma43f8ba738" x="342.125642" y="140.937241" style="fill: #ffffff; stroke: #000000"/>
      </g>
     </g>
     <g id="line2d_32">
      <g>
       <use xlink:href="#ma3305ae6b1" x="342.125642" y="3.00024" style="fill: #ffffff; stroke: #000000"/>
      </g>
     </g>
     <g id="text_18">
      <!-- −0.5 -->
      <g transform="translate(329.984235 152.035679) scale(0.1 -0.1)">
       <use xlink:href="#DejaVuSans-2212"/>
       <use xlink:href="#DejaVuSans-30" transform="translate(83.789062 0)"/>
       <use xlink:href="#DejaVuSans-2e" transform="translate(147.412109 0)"/>
       <use xlink:href="#DejaVuSans-35" transform="translate(179.199219 0)"/>
      </g>
     </g>
    </g>
    <g id="xtick_10">
     <g id="line2d_33">
      <g>
       <use xlink:href="#ma43f8ba738" x="391.784766" y="140.937241" style="fill: #ffffff; stroke: #000000"/>
      </g>
     </g>
     <g id="line2d_34">
      <g>
       <use xlink:href="#ma3305ae6b1" x="391.784766" y="3.00024" style="fill: #ffffff; stroke: #000000"/>
      </g>
     </g>
     <g id="text_19">
      <!-- 0.0 -->
      <g transform="translate(383.833203 152.035679) scale(0.1 -0.1)">
       <use xlink:href="#DejaVuSans-30"/>
       <use xlink:href="#DejaVuSans-2e" transform="translate(63.623047 0)"/>
       <use xlink:href="#DejaVuSans-30" transform="translate(95.410156 0)"/>
      </g>
     </g>
    </g>
    <g id="xtick_11">
     <g id="line2d_35">
      <g>
       <use xlink:href="#ma43f8ba738" x="441.44389" y="140.937241" style="fill: #ffffff; stroke: #000000"/>
      </g>
     </g>
     <g id="line2d_36">
      <g>
       <use xlink:href="#ma3305ae6b1" x="441.44389" y="3.00024" style="fill: #ffffff; stroke: #000000"/>
      </g>
     </g>
     <g id="text_20">
      <!-- 0.5 -->
      <g transform="translate(433.492327 152.035679) scale(0.1 -0.1)">
       <use xlink:href="#DejaVuSans-30"/>
       <use xlink:href="#DejaVuSans-2e" transform="translate(63.623047 0)"/>
       <use xlink:href="#DejaVuSans-35" transform="translate(95.410156 0)"/>
      </g>
     </g>
    </g>
    <g id="xtick_12">
     <g id="line2d_37">
      <g>
       <use xlink:href="#ma43f8ba738" x="491.103014" y="140.937241" style="fill: #ffffff; stroke: #000000"/>
      </g>
     </g>
     <g id="line2d_38">
      <g>
       <use xlink:href="#ma3305ae6b1" x="491.103014" y="3.00024" style="fill: #ffffff; stroke: #000000"/>
      </g>
     </g>
     <g id="text_21">
      <!-- 1.0 -->
      <g transform="translate(483.151451 152.035679) scale(0.1 -0.1)">
       <use xlink:href="#DejaVuSans-31"/>
       <use xlink:href="#DejaVuSans-2e" transform="translate(63.623047 0)"/>
       <use xlink:href="#DejaVuSans-30" transform="translate(95.410156 0)"/>
      </g>
     </g>
    </g>
    <g id="text_22">
     <!-- X2-axis -->
     <g transform="translate(373.357422 165.713804) scale(0.1 -0.1)">
      <use xlink:href="#DejaVuSans-58"/>
      <use xlink:href="#DejaVuSans-32" transform="translate(68.505859 0)"/>
      <use xlink:href="#DejaVuSans-2d" transform="translate(132.128906 0)"/>
      <use xlink:href="#DejaVuSans-61" transform="translate(168.212891 0)"/>
      <use xlink:href="#DejaVuSans-78" transform="translate(229.492188 0)"/>
      <use xlink:href="#DejaVuSans-69" transform="translate(288.671875 0)"/>
      <use xlink:href="#DejaVuSans-73" transform="translate(316.455078 0)"/>
     </g>
    </g>
   </g>
   <g id="matplotlib.axis_4">
    <g id="ytick_6">
     <g id="line2d_39">
      <g>
       <use xlink:href="#m20f2823a81" x="282.569771" y="128.984144" style="fill: #ffffff; stroke: #000000"/>
      </g>
     </g>
     <g id="line2d_40">
      <g>
       <use xlink:href="#m52873b4123" x="500.99976" y="128.984144" style="fill: #ffffff; stroke: #000000"/>
      </g>
     </g>
    </g>
    <g id="ytick_7">
     <g id="line2d_41">
      <g>
       <use xlink:href="#m20f2823a81" x="282.569771" y="100.476443" style="fill: #ffffff; stroke: #000000"/>
      </g>
     </g>
     <g id="line2d_42">
      <g>
       <use xlink:href="#m52873b4123" x="500.99976" y="100.476443" style="fill: #ffffff; stroke: #000000"/>
      </g>
     </g>
    </g>
    <g id="ytick_8">
     <g id="line2d_43">
      <g>
       <use xlink:href="#m20f2823a81" x="282.569771" y="71.968741" style="fill: #ffffff; stroke: #000000"/>
      </g>
     </g>
     <g id="line2d_44">
      <g>
       <use xlink:href="#m52873b4123" x="500.99976" y="71.968741" style="fill: #ffffff; stroke: #000000"/>
      </g>
     </g>
    </g>
    <g id="ytick_9">
     <g id="line2d_45">
      <g>
       <use xlink:href="#m20f2823a81" x="282.569771" y="43.461039" style="fill: #ffffff; stroke: #000000"/>
      </g>
     </g>
     <g id="line2d_46">
      <g>
       <use xlink:href="#m52873b4123" x="500.99976" y="43.461039" style="fill: #ffffff; stroke: #000000"/>
      </g>
     </g>
    </g>
    <g id="ytick_10">
     <g id="line2d_47">
      <g>
       <use xlink:href="#m20f2823a81" x="282.569771" y="14.953337" style="fill: #ffffff; stroke: #000000"/>
      </g>
     </g>
     <g id="line2d_48">
      <g>
       <use xlink:href="#m52873b4123" x="500.99976" y="14.953337" style="fill: #ffffff; stroke: #000000"/>
      </g>
     </g>
    </g>
    <g id="text_23">
     <!-- Y2-axis -->
     <g transform="translate(276.490084 90.024991) rotate(-90) scale(0.1 -0.1)">
      <use xlink:href="#DejaVuSans-59"/>
      <use xlink:href="#DejaVuSans-32" transform="translate(61.083984 0)"/>
      <use xlink:href="#DejaVuSans-2d" transform="translate(124.707031 0)"/>
      <use xlink:href="#DejaVuSans-61" transform="translate(160.791016 0)"/>
      <use xlink:href="#DejaVuSans-78" transform="translate(222.070312 0)"/>
      <use xlink:href="#DejaVuSans-69" transform="translate(281.25 0)"/>
      <use xlink:href="#DejaVuSans-73" transform="translate(309.033203 0)"/>
     </g>
    </g>
   </g>
   <g id="line2d_49">
    <path d="M 377.768974 128.702189
L 371.839304 128.665956
L 365.982874 128.625083
L 360.221187 128.578977
L 354.575401 128.526974
L 349.066246 128.468328
L 343.713953 128.402197
L 338.538174 128.327636
L 333.557916 128.243585
L 328.791464 128.148853
L 324.256322 128.042103
L 319.969143 127.921838
L 315.945668 127.786382
L 312.200672 127.633861
L 308.747907 127.46218
L 305.60005 127.269003
L 302.768662 127.051728
L 300.264137 126.807462
L 298.095674 126.532995
L 296.271235 126.224773
L 294.797518 125.878872
L 293.679935 125.490971
L 292.922591 125.056331
L 292.528266 124.56977
L 292.498407 124.025651
L 292.833125 123.417868
L 293.531191 122.739853
L 294.590041 121.984579
L 296.005787 121.144596
L 297.77323 120.212073
L 299.885881 119.178867
L 302.335982 118.036623
L 305.114537 116.776902
L 308.211342 115.391339
L 311.615026 113.871851
L 315.31309 112.210872
L 319.291957 110.40163
L 323.537015 108.438462
L 328.032677 106.317146
L 332.762435 104.035259
L 337.708921 101.592526
L 342.853971 98.99115
L 348.178695 96.236104
L 353.663538 93.335341
L 359.288362 90.299919
L 365.032511 87.144003
L 370.874894 83.884729
L 376.794057 80.541934
L 382.768265 77.137727
L 388.775582 73.695952
L 394.793949 70.24153
L 400.801266 66.799754
L 406.775475 63.395548
L 412.694638 60.052752
L 418.53702 56.793479
L 424.28117 53.637562
L 429.905993 50.60214
L 435.390837 47.701377
L 440.71556 44.946331
L 445.860611 42.344956
L 450.807096 39.902223
L 455.536854 37.620335
L 460.032516 35.49902
L 464.277574 33.535851
L 468.256441 31.72661
L 471.954506 30.065631
L 475.35819 28.546143
L 478.454995 27.16058
L 481.233549 25.900858
L 483.68365 24.758615
L 485.796301 23.725409
L 487.563745 22.792885
L 488.979491 21.952902
L 490.03834 21.197629
L 490.736406 20.519613
L 491.071124 19.911831
L 491.041266 19.367711
L 490.64694 18.881151
L 489.889596 18.446511
L 488.772013 18.05861
L 487.298297 17.712709
L 485.473857 17.404486
L 483.305394 17.130019
L 480.80087 16.885753
L 477.969481 16.668478
L 474.821624 16.475301
L 471.368859 16.30362
L 467.623863 16.151099
L 463.600389 16.015644
L 459.313209 15.895379
L 454.778067 15.788629
L 450.011616 15.693896
L 445.031357 15.609845
L 439.855578 15.535285
L 434.503285 15.469154
L 428.99413 15.410507
L 423.348344 15.358505
L 417.586658 15.312399
L 411.730227 15.271525
L 405.800558 15.235292
" clip-path="url(#p2cb98f0197)" style="fill: none; stroke-dasharray: 5.55,2.4; stroke-dashoffset: 0; stroke: #1f77b4; stroke-width: 1.5"/>
   </g>
   <g id="line2d_50">
    <path d="M 293.460445 128.702189
L 294.489889 128.665956
L 295.876597 128.625083
L 297.615477 128.578977
L 299.700144 128.526974
L 302.122942 128.468328
L 304.874977 128.402197
L 307.946141 128.327636
L 311.325159 128.243585
L 314.999621 128.148853
L 318.956037 128.042103
L 323.179877 127.921838
L 327.655633 127.786382
L 332.366869 127.633861
L 337.296285 127.46218
L 342.425782 127.269003
L 347.736523 127.051728
L 353.209009 126.807462
L 358.823143 126.532995
L 364.558311 126.224773
L 370.393454 125.878872
L 376.307146 125.490971
L 382.277671 125.056331
L 388.283105 124.56977
L 394.301398 124.025651
L 400.310449 123.417868
L 406.288195 122.739853
L 412.212684 121.984579
L 418.062162 121.144596
L 423.815151 120.212073
L 429.450525 119.178867
L 434.947592 118.036623
L 440.286166 116.776902
L 445.446644 115.391339
L 450.410078 113.871851
L 455.158241 112.210872
L 459.673698 110.40163
L 463.939869 108.438462
L 467.941089 106.317146
L 471.662665 104.035259
L 475.090932 101.592526
L 478.213301 98.99115
L 481.018308 96.236104
L 483.495651 93.335341
L 485.636234 90.299919
L 487.432198 87.144003
L 488.876947 83.884729
L 489.965176 80.541934
L 490.69289 77.137727
L 491.057417 73.695952
L 491.057417 70.24153
L 490.69289 66.799754
L 489.965176 63.395548
L 488.876947 60.052752
L 487.432198 56.793479
L 485.636234 53.637562
L 483.495651 50.60214
L 481.018308 47.701377
L 478.213301 44.946331
L 475.090932 42.344956
L 471.662665 39.902223
L 467.941089 37.620335
L 463.939869 35.49902
L 459.673698 33.535851
L 455.158241 31.72661
L 450.410078 30.065631
L 445.446644 28.546143
L 440.286166 27.16058
L 434.947592 25.900858
L 429.450525 24.758615
L 423.815151 23.725409
L 418.062162 22.792885
L 412.212684 21.952902
L 406.288195 21.197629
L 400.310449 20.519613
L 394.301398 19.911831
L 388.283105 19.367711
L 382.277671 18.881151
L 376.307146 18.446511
L 370.393454 18.05861
L 364.558311 17.712709
L 358.823143 17.404486
L 353.209009 17.130019
L 347.736523 16.885753
L 342.425782 16.668478
L 337.296285 16.475301
L 332.366869 16.30362
L 327.655633 16.151099
L 323.179877 16.015644
L 318.956037 15.895379
L 314.999621 15.788629
L 311.325159 15.693896
L 307.946141 15.609845
L 304.874977 15.535285
L 302.122942 15.469154
L 299.700144 15.410507
L 297.615477 15.358505
L 295.876597 15.312399
L 294.489889 15.271525
L 293.460445 15.235292
" clip-path="url(#p2cb98f0197)" style="fill: none; stroke-dasharray: 5.55,2.4; stroke-dashoffset: 0; stroke: #ff7f0e; stroke-width: 1.5"/>
   </g>
   <g id="patch_8">
    <path d="M 282.569771 140.937241
L 282.569771 3.00024
" style="fill: none; stroke: #000000; stroke-linejoin: miter; stroke-linecap: square"/>
   </g>
   <g id="patch_9">
    <path d="M 500.99976 140.937241
L 500.99976 3.00024
" style="fill: none; stroke: #000000; stroke-linejoin: miter; stroke-linecap: square"/>
   </g>
   <g id="patch_10">
    <path d="M 282.569771 140.937241
L 500.99976 140.937241
" style="fill: none; stroke: #000000; stroke-linejoin: miter; stroke-linecap: square"/>
   </g>
   <g id="patch_11">
    <path d="M 282.569771 3.00024
L 500.99976 3.00024
" style="fill: none; stroke: #000000; stroke-linejoin: miter; stroke-linecap: square"/>
   </g>
   <g id="legend_2">
    <g id="line2d_51">
     <path d="M 295.778516 174.635505
L 305.778516 174.635505
L 315.778516 174.635505
" style="fill: none; stroke-dasharray: 5.55,2.4; stroke-dashoffset: 0; stroke: #1f77b4; stroke-width: 1.5"/>
    </g>
    <g id="text_24">
     <!-- Tan vs Sine -->
     <g transform="translate(319.778516 178.135505) scale(0.1 -0.1)">
      <defs>
       <path id="DejaVuSans-54" d="M -19 4666
L 3928 4666
L 3928 4134
L 2272 4134
L 2272 0
L 1638 0
L 1638 4134
L -19 4134
L -19 4666
z
" transform="scale(0.015625)"/>
       <path id="DejaVuSans-20" transform="scale(0.015625)"/>
       <path id="DejaVuSans-76" d="M 191 3500
L 800 3500
L 1894 563
L 2988 3500
L 3597 3500
L 2284 0
L 1503 0
L 191 3500
z
" transform="scale(0.015625)"/>
      </defs>
      <use xlink:href="#DejaVuSans-54"/>
      <use xlink:href="#DejaVuSans-61" transform="translate(44.583984 0)"/>
      <use xlink:href="#DejaVuSans-6e" transform="translate(105.863281 0)"/>
      <use xlink:href="#DejaVuSans-20" transform="translate(169.242188 0)"/>
      <use xlink:href="#DejaVuSans-76" transform="translate(201.029297 0)"/>
      <use xlink:href="#DejaVuSans-73" transform="translate(260.208984 0)"/>
      <use xlink:href="#DejaVuSans-20" transform="translate(312.308594 0)"/>
      <use xlink:href="#DejaVuSans-53" transform="translate(344.095703 0)"/>
      <use xlink:href="#DejaVuSans-69" transform="translate(407.572266 0)"/>
      <use xlink:href="#DejaVuSans-6e" transform="translate(435.355469 0)"/>
      <use xlink:href="#DejaVuSans-65" transform="translate(498.734375 0)"/>
     </g>
    </g>
    <g id="line2d_52">
     <path d="M 395.803516 174.635505
L 405.803516 174.635505
L 415.803516 174.635505
" style="fill: none; stroke-dasharray: 5.55,2.4; stroke-dashoffset: 0; stroke: #ff7f0e; stroke-width: 1.5"/>
    </g>
    <g id="text_25">
     <!-- Tan vs Cosine -->
     <g transform="translate(419.803516 178.135505) scale(0.1 -0.1)">
      <use xlink:href="#DejaVuSans-54"/>
      <use xlink:href="#DejaVuSans-61" transform="translate(44.583984 0)"/>
      <use xlink:href="#DejaVuSans-6e" transform="translate(105.863281 0)"/>
      <use xlink:href="#DejaVuSans-20" transform="translate(169.242188 0)"/>
      <use xlink:href="#DejaVuSans-76" transform="translate(201.029297 0)"/>
      <use xlink:href="#DejaVuSans-73" transform="translate(260.208984 0)"/>
      <use xlink:href="#DejaVuSans-20" transform="translate(312.308594 0)"/>
      <use xlink:href="#DejaVuSans-43" transform="translate(344.095703 0)"/>
      <use xlink:href="#DejaVuSans-6f" transform="translate(413.919922 0)"/>
      <use xlink:href="#DejaVuSans-73" transform="translate(475.101562 0)"/>
      <use xlink:href="#DejaVuSans-69" transform="translate(527.201172 0)"/>
      <use xlink:href="#DejaVuSans-6e" transform="translate(554.984375 0)"/>
      <use xlink:href="#DejaVuSans-65" transform="translate(618.363281 0)"/>
     </g>
    </g>
   </g>
  </g>
 </g>
 <defs>
  <clipPath id="pc3fbaa9958">
   <rect x="44.461178" y="3.00024" width="218.429989" height="137.937001"/>
  </clipPath>
  <clipPath id="p2cb98f0197">
   <rect x="282.569771" y="3.00024" width="218.429989" height="137.937001"/>
  </clipPath>
 </defs>
</svg>
